<svg width="1280" height="1280" viewBox="0 0 1280 1280" fill="none" xmlns="http://www.w3.org/2000/svg">
<path d="M204.15 867.29C205.96 908.41 205.81 949.07 206.55 989.71C206.59 992.15 206.73 994.75 203.53 995C200.23 995.26 199.99 992.73 199.98 990.23C199.83 951.4 198.62 912.58 199.16 873.74C199.31 862.94 199.34 862.86 188.5 862.95C162.34 863.18 136.17 862.3 110.02 863.82C102.32 864.27 99.7901 860.95 101.67 853.56C101.95 852.45 101.94 851.25 101.95 850.1C102.17 835.12 102.36 820.13 102.57 805.15C102.63 801.04 104.99 799 108.86 798.92C114.52 798.8 120.19 798.98 125.85 799.04C140.35 799.2 154.85 799.27 169.34 799.6C172.75 799.68 173.42 798.62 173.37 795.33C173.27 788.51 173.96 781.69 174.04 774.86C174.09 770.48 177.13 768.37 179.67 765.53C184.18 760.49 189.11 756.05 195.07 752.98C198.85 751.04 199.23 749.73 196.41 746.31C178.64 724.69 161.09 702.88 143.51 681.1C139.85 676.57 136.29 671.94 132.81 667.27C130.26 663.84 130.17 660.71 133.04 656.94C152.51 631.36 171.71 605.57 191.13 579.95C193.04 577.43 193.19 575.64 191.65 572.91C187.4 565.38 183.25 557.77 179.5 549.98C174.44 539.45 175.58 529.22 182.6 519.93C190.16 509.92 199.66 503.11 212.94 503.61C218.01 503.8 222.3 506.09 225.86 509.5C253.76 536.27 281.62 563.07 309.4 589.95C313.88 594.28 313.25 597.31 307.86 600.5C300.753 604.7 298.067 610.76 299.8 618.68C300.95 623.92 301.47 629.22 300.99 634.57C300.05 645.23 291.52 652.03 280.91 650.65C272.45 649.55 264.88 646.25 258.21 641.02C256.12 639.38 254.74 639.3 252.67 640.94C249.54 643.42 246.26 645.75 242.83 647.77C238.37 650.4 234.97 649.45 232.37 644.95C223.22 629.09 214.08 613.22 205.15 597.24C203.26 593.87 202.42 593.6 200.03 596.87C184.72 617.86 169.27 638.76 153.72 659.58C151.97 661.92 151.96 663.06 154.04 665.29C177.18 690.19 200.19 715.21 223.15 740.28C225.26 742.59 227.24 744.03 230.62 744.31C244.93 745.47 256.61 751.83 265.73 763.01C268.61 766.55 270.1 770.33 270.02 774.9C269.91 781.73 269.99 788.57 268.97 795.33C268.54 798.2 269.42 799.13 272.35 799.05C279.51 798.86 286.68 798.89 293.85 798.99C296.02 799.02 297.06 798.4 297.64 796.16C302.15 778.77 311.33 770.55 327.23 769.44C341.31 768.46 356.45 778.26 361.85 792.71C363.64 797.51 365.83 799.03 370.76 798.58C376.71 798.04 382.75 798.26 388.75 798.37C391.41 798.42 392.16 797.46 392.08 794.88C391.24 768.08 391.33 741.26 389.36 714.48C387.69 691.72 386.98 668.9 385.85 646.1C385.01 628.96 383.58 611.89 381.11 594.89C379.87 586.38 375.44 581.35 367.42 579.03C356.22 575.8 344.82 573.46 333.46 570.93C323.54 568.73 313.6 566.54 305.33 560.03C302.57 557.86 299.98 555.53 297.9 552.67C296.13 550.23 294.1 547.75 295.18 544.5C296.4 540.84 299.96 542.48 302.65 541.77C302.01 539.28 301.65 536.82 302.07 534.4C302.48 532.06 303.36 529.82 305.9 528.99C308.49 528.15 310.54 529.38 312 531.35C314.46 534.7 317.01 538.04 318.99 541.67C321.78 546.8 325.36 549.63 331.66 547.44C329.58 543.6 326.7 539.87 327.14 534.89C327.36 532.44 328.1 531.64 330.53 532.2C339.92 534.38 349.34 536.38 358.47 539.57C385.95 549.15 403.4 568.08 412.05 595.79C418.39 616.11 421.07 637.03 423.96 657.95C426.19 674.09 428.07 690.26 428.11 706.72C432.61 706.49 433.61 704.6 433.25 700.37C429.43 654.73 425.69 609.08 422.3 563.41C421.05 546.64 419.94 529.84 419.73 513C419.67 508.05 421.32 506.59 426.03 506.82C451.35 508.04 476.68 506.95 502.01 507.08C505.56 507.1 506.87 506.53 506.62 502.43C505.95 491.65 509.24 482.11 517.1 474.34C521.74 469.76 526.59 465.37 532.19 462.07C536.73 459.4 538.38 455.63 539.02 450.71C540.83 436.69 541.91 422.54 545.95 408.9C552.17 387.92 573.34 373.48 595.22 375.18C596.85 375.31 598.29 375.65 599.9 374.44C620.76 358.76 643.71 357.29 667.64 365.4C697.07 375.37 712.47 397.65 718.71 426.81C720.41 434.76 723 438.59 731.29 441.32C750.67 447.71 760.07 463.9 765.85 482.42C767.74 488.47 768.43 494.81 769.02 501.1C769.35 504.66 770.55 506.05 774.51 506.01C796.34 505.83 818.17 505.9 840.01 506.08C853.32 506.19 853.8 506.95 853.21 520.1C850.7 575.85 846.21 631.48 842.23 687.14C841.48 697.61 840.75 708.08 840.07 718.55C839.96 720.17 839.46 721.92 840.55 723.41C847.16 732.38 852.2 742.34 858.59 752.49C859.53 745.29 858.27 738.96 858.2 732.62C858.12 725.47 858.61 724.78 865.68 724.68C887.84 724.37 910.01 724.26 932.17 723.97C936.51 723.91 938.25 725.82 937.94 730.04C937.7 733.35 936.32 737.59 937.84 739.73C939.5 742.06 943.86 739.65 947.09 739.87C956.91 740.55 964.15 747.15 965.93 757.47C967.84 768.55 964.58 774.74 954.59 779.02C949.52 781.19 944.22 782.75 938.82 783.62C936.1 784.06 935.75 785.24 935.66 787.5C935.27 797.17 935.21 797.17 944.83 797.14C951.66 797.12 958.5 796.99 965.33 797.15C968.26 797.22 968.97 796.22 968.76 793.39C968.49 789.76 968.91 786.08 968.85 782.42C968.79 779.02 970.25 777.49 973.67 777.75C974.99 777.85 976.34 777.64 977.67 777.75C981.03 778.05 982.22 776.91 982.18 773.25C982 759.27 982.16 759.01 996.04 759.29C1001.2 759.39 1003.05 758.14 1002.09 752.87C1001.53 749.8 1001.93 746.56 1001.84 743.39C1001.75 740.02 1003.35 738.51 1006.7 738.6C1010.36 738.7 1014.04 738.58 1017.7 738.73C1020.39 738.84 1021.1 737.91 1020.71 735.19C1019.49 726.63 1020.07 726.14 1028.62 725.69C1061.42 723.99 1094.25 723.9 1127.07 723.3C1132.56 723.2 1138.06 723.66 1143.56 723.7C1146.38 723.73 1147.5 724.96 1147.24 727.7C1147.11 729.03 1147.11 730.36 1147.03 731.69C1146.88 734.16 1145.82 737.1 1146.81 738.97C1147.86 740.96 1151.11 739.62 1153.38 739.81C1156.12 740.05 1156.59 741.88 1156.61 743.99C1156.67 748.99 1156.67 753.99 1156.57 758.99C1156.49 763.01 1153.76 764.5 1150.29 764.69C1146.14 764.93 1141.95 765.01 1137.8 764.77C1133.12 764.49 1135.09 767.87 1134.76 769.9C1134.41 772.02 1133.94 774.05 1137.58 774.1C1144.37 774.2 1144.36 774.44 1144.13 781.44C1144.03 784.44 1144.07 787.44 1143.89 790.43C1143.52 796.66 1143.48 796.62 1149.98 796.7C1156.48 796.78 1162.98 796.82 1169.47 797.1C1174.86 797.33 1177.08 799.63 1176.93 804.94C1176.46 820.76 1175.97 836.58 1175.2 852.38C1174.75 861.65 1174.5 861.63 1164.82 862.07C1137.5 863.3 1110.17 862.81 1082.84 862.61C1078.48 862.58 1077.74 863.86 1077.96 867.92C1080.13 907.37 1080.22 946.87 1079.83 986.37C1079.81 988.68 1079.47 991.01 1079.06 993.3C1078.6 995.88 1076.93 997.62 1074.31 997.61C1071.94 997.6 1070.5 995.97 1069.76 993.64C1069.09 991.52 1069 989.38 1069.01 987.22C1069.08 957.72 1069.08 928.22 1069.34 898.73C1069.37 895.13 1068.4 893.01 1065.36 891.07C1054.85 884.35 1044.52 877.34 1034.11 870.42C1032.98 870.68 1033.24 871.62 1033.24 872.39C1033.39 924.22 1033.54 976.05 1033.72 1027.88C1033.73 1031.88 1033.87 1035.88 1034.03 1039.87C1034.17 1043.44 1033.16 1046.61 1029.19 1046.66C1024.86 1046.72 1023.96 1043.32 1024.08 1039.61C1025.26 1004.79 1024.42 969.95 1024.5 935.12C1024.55 912.12 1023.92 889.12 1024.92 866.13C1025.06 862.95 1024.05 862.17 1021.05 862.17C962.89 862.15 904.72 862.04 846.56 861.95C844.43 861.95 842.9 861.58 843.77 865.06C846.75 877.02 843.83 882.81 832.45 887.52C828.73 889.06 828.47 890.25 830.22 893.73C861.84 956.61 891.58 1020.38 919.6 1084.93C927.74 1103.68 933.13 1123.54 941.78 1142.13C942.8 1144.33 944 1145.98 945.99 1147.39C960.35 1157.55 976.38 1165.39 988.44 1178.78C1001.94 1193.76 1016.4 1207.84 1030.71 1222.04C1033.42 1224.73 1035.92 1227.66 1038.27 1230.68C1040.23 1233.19 1042.17 1236.03 1039.95 1239.3C1037.82 1242.45 1034.54 1242.16 1031.36 1241.42C1005.31 1235.39 980.55 1225.71 956.24 1214.79C944.53 1209.53 933.07 1203.81 922.87 1195.87C909.77 1185.67 907.24 1177.75 912.01 1161.92C912.44 1160.49 912.75 1159.01 913.25 1157.61C914.88 1153.02 913.82 1149.78 909.88 1146.39C882.41 1122.78 859.57 1095.02 838.56 1065.69C831.68 1056.08 825.12 1046.23 818.44 1036.48C816.62 1033.83 808.13 1031.68 805.64 1033.37C804.13 1034.4 804.78 1036.11 804.67 1037.52C803.91 1047.13 805.52 1049.52 794.17 1049.22C785.65 1049 782.16 1053.51 779.51 1061.26C766.69 1098.7 750.25 1134.83 738.7 1172.75C736.91 1178.64 735.08 1184.52 733.08 1190.33C732.07 1193.27 732.26 1194.73 735.69 1196.11C768.25 1209.24 800.28 1223.6 831.76 1239.17C833.7 1240.13 835.61 1241.15 837.46 1242.26C839.54 1243.5 841.37 1245.08 840.81 1247.83C840.26 1250.52 838.05 1251.53 835.65 1251.84C827.4 1252.9 819.15 1254.2 810.85 1254.73C789.73 1256.08 768.59 1256.83 747.43 1255.06C734.75 1254 722.46 1251.24 710.4 1247.32C701.49 1244.43 695.91 1238.67 694.93 1229.14C693.94 1219.56 690.41 1210.44 691.95 1200.35C696.23 1172.22 699.62 1143.96 703.57 1115.78C706.32 1096.17 709.35 1076.6 712.41 1057.04C712.8 1054.55 712.35 1053.73 709.85 1053.8C706.02 1053.9 702.18 1053.92 698.35 1053.74C695.52 1053.61 695.05 1054.94 695.22 1057.38C695.64 1063.19 695.75 1069.03 696.2 1074.84C696.51 1078.88 694.94 1080.85 690.85 1080.71C690.52 1080.7 690.18 1080.71 689.85 1080.73C686.06 1081.01 681.04 1079.13 678.78 1081.53C676.13 1084.34 678.18 1089.45 678.02 1093.55C677.93 1095.87 678.15 1098.21 678.26 1100.54C678.43 1104.29 678.37 1107.73 673.04 1107.47C670.32 1107.34 671.04 1109.68 671.11 1111.15C671.57 1120.32 671.51 1129.48 671.03 1138.63C670.28 1152.95 668.85 1167.18 664.19 1180.87C663.29 1183.53 662.15 1186.19 660.64 1188.53C656.48 1194.99 650.38 1194.81 646.44 1188.26C644.18 1184.5 642.95 1180.3 642.18 1176.06C638.26 1154.42 638.13 1132.66 640.55 1110.86C640.82 1108.45 641.09 1107.28 638.05 1107.04C631.2 1106.51 630.96 1106.33 631.01 1099.21C631.04 1095.11 630.31 1093.92 625.77 1094.66C619.06 1095.76 612.17 1095.78 605.34 1095.99C602.47 1096.08 600.33 1096.88 598.41 1099.1C594.49 1103.64 589.93 1107.66 586.33 1112.42C581.73 1118.49 576 1121.57 568.48 1121.71C567.12 1121.74 565.4 1121.27 564.71 1123.28C563.26 1127.51 559.66 1128.28 555.87 1128.42C548.88 1128.67 541.88 1128.89 534.88 1128.9C529.28 1128.91 526.19 1125.56 526.74 1119.97C527.2 1115.34 528.14 1110.76 528.93 1106.17C529.61 1102.22 532.6 1100.62 536.03 1100.18C542.14 1099.4 548.3 1098.79 554.47 1099.38C560.28 1099.93 562.57 1102.08 562.89 1107.84C563.05 1110.65 564.04 1111.29 566.68 1111.72C573.06 1112.75 577.91 1111.04 581.94 1105.85C585.71 1100.99 590.21 1096.71 594.12 1091.95C596.57 1088.97 599.34 1087.53 603.19 1087.88C610.65 1088.56 618.12 1089.12 625.58 1089.72C627.85 1089.9 630.51 1090.69 630.09 1086.71C629.81 1084.02 631.38 1080.33 626.07 1081C623.12 1081.38 620.07 1080.92 617.08 1081.12C612.92 1081.41 611.3 1079.23 611.21 1075.49C611.07 1069.83 610.73 1064.14 611.1 1058.5C611.35 1054.64 610.19 1053.77 606.48 1053.84C580.82 1054.28 555.15 1054.5 529.49 1054.78C521.82 1054.86 514.16 1054.73 506.52 1053.95C500.65 1053.35 499.04 1051.58 498.96 1045.66C498.94 1044.49 498.89 1043.32 499.02 1042.16C499.47 1038.08 498.8 1036.08 494 1033.94C481.7 1028.44 476.33 1017.61 475.93 1004.15C474.81 966.83 474.5 929.5 476.02 892.19C476.19 888.05 475.82 885.48 471.27 883.51C463.14 879.99 460.64 874.23 462.39 865.71C462.83 863.57 462.47 863 460.47 863.07C459.3 863.11 458.14 863.07 456.97 863.07C389.47 863.02 321.97 862.97 254.48 862.92C248.09 862.92 248.47 862.9 248.7 869.28C249.59 894.76 250.52 920.24 250.88 945.73C251.37 981.22 251.66 1016.72 250.99 1052.22C250.99 1052.72 250.98 1053.22 250.98 1053.72C250.98 1057.17 250.92 1061.1 246.45 1061.26C241.75 1061.43 241.85 1057.32 241.73 1053.97C240.28 1012.32 240.99 970.65 241.1 928.99C241.13 918.16 241.48 907.33 241.75 896.5C241.8 894.41 241.75 892.74 239.59 891.45C227.84 884.45 216.87 876.32 206.1 867.91C205.74 867.63 205.21 867.58 204.14 867.22L204.15 867.29ZM444.71 777.09C447.2 777.09 448.86 777.1 450.52 777.09C478.84 776.89 507.17 776.64 535.49 776.48C631.29 775.94 727.1 775.4 822.9 775.03C827.73 775.01 828.82 773.61 829.1 768.94C830.6 743.84 832.49 718.76 834.36 693.68C836.84 660.47 839.35 627.26 841.99 594.06C844.03 568.34 845.67 542.58 848.76 516.96C849.13 513.86 848.55 512.86 845.27 513.02C835.29 513.49 825.29 513.88 815.3 513.92C693.17 514.43 571.04 515.41 448.9 515.18C442.24 515.17 435.59 515.67 428.93 515.84C426.35 515.91 425.13 516.39 425.54 519.6C428.36 541.9 430.25 564.29 432.3 586.68C435.95 626.64 439.01 666.65 442.04 706.66C443.64 727.75 445.13 748.84 446.75 769.92C446.94 772.34 446.7 774.52 444.71 777.09ZM639.64 853.93C676.47 853.93 713.29 853.72 750.12 853.97C888.59 854.88 1027.07 853.05 1165.54 854.85C1168.01 854.88 1169.09 854.47 1169.19 851.7C1169.73 836.39 1170.4 821.07 1171.16 805.77C1171.28 803.4 1170.94 802.71 1168.31 802.78C1102.84 804.53 1037.34 803.8 971.86 804.34C816.89 805.61 661.92 806.8 506.95 807.76C397.3 808.44 287.65 808.63 178 809.18C156.51 809.29 135.01 809.48 113.55 810.78C111.38 810.91 109.43 810.42 109.56 814C109.95 824.99 110.05 835.99 109.95 846.98C109.92 850.37 111.13 851.19 114.26 851.21C121.25 851.25 128.24 851.81 135.24 851.84C303.38 852.38 471.52 851.45 639.66 853.94L639.64 853.93ZM514.12 994.8C514.67 997.33 516.14 998.71 517.56 1000.07C523.73 1006 531.29 1008.83 539.68 1009.04C553.67 1009.38 567.68 1009.23 581.67 1009.49C591.09 1009.67 600.17 1008.25 609.21 1005.56C637.29 997.22 662.32 982.78 686.97 967.48C707.33 954.85 727.24 941.4 749.34 931.84C752.5 930.47 753.11 929.48 751.36 926.22C746.55 917.29 741.71 908.35 738.43 898.7C737.93 897.24 737.01 895.09 738.91 894.32C740.61 893.63 741.18 895.87 741.87 897.08C757.01 923.34 773.77 948.6 789.65 974.4C812.24 1011.14 834.5 1048.06 860.5 1082.58C876.16 1103.37 893.46 1122.74 910.34 1142.5C914.31 1147.14 918.1 1148.99 924.99 1147.29C860.55 1069.47 811.69 982.45 763.9 894.01C766.77 894.85 767.78 896.65 768.96 898.22C775.22 906.45 780.8 915.14 786.02 924.04C811.11 966.84 836.17 1009.62 863.68 1050.96C885.19 1083.28 907.12 1115.24 930.89 1145.94C932.35 1147.83 933.73 1148.78 935.85 1147.57C938.05 1146.32 936.65 1144.65 935.99 1143.25C927.38 1125.04 920.87 1105.93 912.48 1087.64C893.67 1046.67 873.55 1006.32 855.26 965.1C840.49 931.81 826.16 898.29 808.71 866.25C806.94 863 804.96 861.97 801.34 862C771.01 862.23 740.68 862.25 710.35 862.3C706.66 862.3 703.09 862.87 699.48 863.61C676.4 868.4 654.7 877.43 632.63 885.31C622.3 889 611.18 891.21 601.71 896.45C577.39 909.89 553.06 923.34 528.77 936.86C510.84 946.84 505.97 970.38 509.34 983.86C510.03 986.64 511.22 987.92 514.29 988.28C529.04 990.05 542.76 986.03 556.09 980.7C585.42 968.96 612.39 952.76 639 935.92C667.55 917.86 695.94 899.48 726.57 884.98C728.02 884.3 729.4 882.98 732.04 883.78C730.26 885.24 729.02 886.29 727.75 887.3C708.36 902.61 687.25 915.38 666.58 928.78C640.74 945.53 615.77 963.69 588.51 978.15C565.44 990.39 541.72 1000.15 514.16 994.81L514.12 994.8ZM434.09 711.84C430.62 715.01 427.91 717.69 424.96 720.09C423.27 721.47 421.21 724.32 419.07 722.46C416.76 720.45 419.61 718.23 420.89 716.62C423.01 713.95 423.45 711.32 423.2 707.92C422.06 692.3 420.43 676.75 417.9 661.3C414.68 641.61 412.94 621.65 407.13 602.44C404.84 594.87 404.88 594.88 397.75 597.31C395.71 598.01 393.63 598.63 391.54 599.15C389.53 599.65 388.94 600.73 389.25 602.77C393.41 630.35 393.23 658.24 394.7 686C396.57 721.43 398.37 756.88 398.72 792.37C398.77 797.06 399.9 798.42 404.81 798.4C554.13 798.01 703.46 797.81 852.78 797.55C877.28 797.51 901.78 797.34 926.27 797.23C928.54 797.22 931 797.82 931.02 794.02C931.09 774.02 931.27 754.03 931.49 734.03C931.52 731.45 930.55 730.56 927.97 730.58C907.97 730.8 887.98 730.95 867.98 731.05C865.79 731.06 864.62 731.53 864.53 734.05C864.12 746.7 863.61 759.34 863.05 771.99C862.95 774.19 863.85 774.77 865.93 774.97C873.28 775.66 874.6 777.26 873.72 785.12C873.42 787.79 874.27 792.65 870.4 792.23C867.25 791.89 868.61 787.26 869.19 784.8C870.08 781.05 868.83 780.86 865.61 780.89C754.62 781.92 643.64 782.85 532.65 783.8C495.99 784.11 459.32 783.5 422.67 784.61C414.56 784.86 414.58 785.09 413.22 792.96C412.93 794.63 413.45 797.14 410.67 796.96C408.1 796.8 407.71 794.45 407.64 792.47C407.52 788.5 408.04 784.56 407.8 780.54C407.59 777.08 410.31 775.73 413.67 776.31C422.93 777.9 432.23 776.73 440.7 777.14C437.49 755.58 436.67 734 434.06 711.87L434.09 711.84ZM736.58 963.26C734.15 965.82 732.12 966.2 730.31 966.91C719.87 970.99 708.95 973.25 697.94 974.96C691.45 975.97 685.58 977.84 679.94 981.48C662.13 992.98 643.3 1002.5 623.01 1008.93C618.49 1010.36 613.98 1011.85 608.26 1013.7C610.21 1013.94 610.84 1014.09 611.46 1014.09C646.62 1014.16 681.77 1014.18 716.93 1014.34C719.43 1014.35 720 1013.39 720.33 1011.28C721.14 1006.02 721.98 1000.76 723.15 995.57C723.71 993.06 723.27 989.89 726.65 988.04C728.76 994.5 727.45 1000.71 726.69 1006.66C722.12 1042.81 717.09 1078.9 712.36 1115.04C708.45 1144.9 704.68 1174.78 700.97 1204.67C700.12 1211.51 700.39 1211.74 707.49 1211.02C720.95 1209.64 718.27 1211.35 722.07 1199.56C730.01 1174.88 736.5 1149.74 745.52 1125.39C761.06 1083.45 776.32 1041.41 791.71 999.42C792.41 997.52 792.77 995.91 791.5 993.86C779.13 973.91 766.64 954.04 755.2 933.53C753.97 931.33 753.13 931.59 751.54 933.03C739.47 943.89 725.57 952.19 712.06 961.03C709.47 962.73 706.88 964.44 704.29 966.15C714.85 965.02 725.04 963.25 736.57 963.29L736.58 963.26ZM220.84 512.87C219.12 514.08 218.16 514.69 217.28 515.41C206.8 523.9 196.31 532.39 185.16 539.99C182.35 541.91 182.48 543.45 184.16 546.07C188.64 553.07 192.99 560.18 197.11 567.4C210.47 590.81 223.7 614.29 237.03 637.72C238.01 639.44 238.24 642.52 241.82 639.88C260.71 625.95 279.7 612.14 298.8 598.5C302.18 596.08 301.58 594.86 299.03 592.31C273.43 566.79 247.96 541.15 222.48 515.52C221.79 514.83 221.43 513.82 220.86 512.88L220.84 512.87ZM612.06 1021.99C612.06 1021.72 612.06 1021.44 612.06 1021.17C577.44 1020.63 542.81 1020.13 508.19 1019.47C505.21 1019.41 504.94 1020.51 505.09 1022.92C505.38 1027.57 505.44 1032.23 505.58 1036.89C505.68 1040.2 504.47 1044.66 506.15 1046.53C508.16 1048.77 512.66 1046.92 516.07 1046.9C569.18 1046.59 622.29 1046.25 675.39 1045.85C687.04 1045.76 698.69 1045.34 710.34 1045.27C713.44 1045.25 714.72 1044.24 715.1 1041.09C715.7 1036.15 716.65 1031.23 717.78 1026.38C718.62 1022.78 717.52 1021.9 713.93 1021.92C679.97 1022.04 646.01 1021.99 612.04 1021.99H612.06ZM674.34 506.25V506.15C682.17 506.15 690.01 505.9 697.82 506.25C701.89 506.43 702.62 504.72 702.36 501.32C701.64 491.82 699.74 482.57 696.94 473.47C696.03 470.51 694.11 469.2 691.07 469.1C684.87 468.91 678.87 467.45 672.93 465.87C655.83 461.32 640.06 454.66 631.15 437.87C629.7 435.13 628.65 436.88 627.58 438.09C622.17 444.21 616.53 450.11 610.26 455.36C600.28 463.72 590.19 471.94 576.77 474.15C574.58 474.51 574.86 476.06 574.78 477.52C574.28 486.01 574.66 494.49 574.91 502.98C575 506.2 576.36 506.83 579.19 506.79C594.51 506.56 609.83 506.43 625.16 506.37C627.5 506.37 628.66 505.58 629.56 503.36C631.51 498.6 633.8 493.97 636.05 489.34C636.72 487.97 637.81 486.86 639.57 487.02C641.38 487.18 642.14 488.59 642.54 490.01C643.71 494.17 644.94 498.33 645.69 502.57C646.21 505.5 647.52 506.34 650.36 506.28C658.35 506.12 666.35 506.22 674.34 506.22V506.25ZM557.47 911.6C557.38 911.4 557.3 911.19 557.21 910.99C549.16 913.47 541.14 916.03 533.06 918.39C529.23 919.51 525.3 920.38 521.25 919.97C519.96 919.84 518.33 919.72 518.17 918.08C518.02 916.5 519.65 916.51 520.69 916.27C531.12 913.91 540.87 909.55 550.88 905.96C590.96 891.57 632 880.03 671.85 865C673.21 864.49 674.55 863.93 676.74 863.07H604.2C608.52 866.44 613.41 867.41 616.09 872.18C606.4 872.11 598.5 868.16 590.53 864.48C589.19 863.86 588.05 862.93 586.42 862.94C566.25 863 546.09 863 525.92 863.05C524.65 863.05 523.09 862.82 523.44 865.05C524.56 872.34 523.75 879.63 522.91 887.46C525.58 885.99 527.7 884.76 529.88 883.65C531.54 882.8 533.89 881.9 535 883.34C536.51 885.31 533.89 886.43 532.72 887.55C523.63 896.28 516.08 906.16 510.18 917.29C507.89 921.62 506.46 926.23 507.08 931.21C507.75 936.61 511.74 938.25 516.1 935.25C519.38 932.99 522.88 931.04 526.36 929.08C536.71 923.22 547.09 917.43 557.46 911.61L557.47 911.6ZM919.02 1153.41C918.33 1158.58 917.8 1163.51 917 1168.38C915.83 1175.47 918.24 1181.07 923.55 1185.7C928.98 1190.43 934.94 1194.39 941.27 1197.75C965.27 1210.5 990.4 1220.57 1016.16 1229.14C1020.43 1230.56 1024.65 1232.26 1030.17 1232.79C1027.79 1230.14 1026.1 1228.1 1024.25 1226.22C1009.64 1211.39 995.02 1196.56 980.34 1181.8C972.65 1174.07 963.97 1167.7 954.01 1163.11C949.02 1160.81 944.19 1158.15 940.06 1154.47C938.81 1153.36 937.78 1152.99 936.08 1153.57C930.45 1155.5 924.73 1155.83 919.03 1153.39L919.02 1153.41ZM826.3 1245.73C822.26 1243.78 819.46 1242.39 816.63 1241.07C789.65 1228.53 762.64 1216.05 735.69 1203.44C730.04 1200.8 729.8 1200.48 728.05 1206.54C725.86 1214.15 721.25 1217.92 713.33 1218.06C709.86 1218.12 706.4 1218.85 702.95 1219.39C701.79 1219.57 700.13 1219.45 700.78 1221.69C702.98 1229.31 705.39 1236.03 714.35 1239.1C741.68 1248.46 769.79 1249.42 798.17 1248.44C807.12 1248.13 816.12 1247.92 826.31 1245.73H826.3ZM1056.06 797.11V796.69C1082.19 796.69 1108.32 796.64 1134.45 796.75C1138 796.76 1140.17 796.36 1139.63 791.99C1139.27 789.05 1139.33 785.95 1139.84 783.03C1140.61 778.61 1138.58 778.07 1134.89 778.26C1114.96 779.27 1095.02 780.04 1075.09 781.04C1044.66 782.57 1014.18 781.52 983.74 782.63C974.2 782.98 974.48 782.99 973.43 792.42C972.95 796.76 974.53 797.2 978.17 797.18C1004.13 797.05 1030.1 797.11 1056.06 797.11ZM222.5 773.93C222.5 773.57 222.5 773.22 222.5 772.86C209.53 772.86 196.56 772.93 183.59 772.8C180.93 772.77 179.59 773.2 179.79 776.25C180.23 782.91 179.51 789.55 178.69 796.14C178.33 799.03 179.3 799.56 181.83 799.54C208.11 799.32 234.38 799.15 260.66 799.06C263.25 799.06 264.12 798.32 264.03 795.64C263.85 790 263.52 784.31 264.75 778.74C265.6 774.88 264.13 773.82 260.41 773.86C247.78 774.02 235.14 773.92 222.5 773.92V773.93ZM1078.65 744.61C1060.1 744.61 1039.77 744.6 1019.44 744.61C1008.94 744.61 1009.18 744.67 1007.71 754.82C1007.16 758.58 1007.98 759.25 1011.52 759.19C1026.01 758.94 1040.52 759.13 1055.01 758.86C1084.98 758.3 1114.96 759.86 1144.92 758.14C1152.12 757.73 1152.12 757.8 1152.03 750.55C1152.03 749.88 1151.93 749.21 1152.01 748.55C1152.38 745.38 1150.81 744.73 1147.91 744.69C1125.42 744.35 1102.93 743.76 1078.66 744.61H1078.65ZM300.58 547.13C301.13 549.97 302.64 551.12 303.86 552.44C311.3 560.53 321.29 563.06 331.52 564.98C343.94 567.32 356.36 569.67 368.57 573.01C376.21 575.1 382.76 578.62 386.13 586.44C387.27 589.08 386.53 593.56 389.23 594.11C391.85 594.65 395 592 398.04 591.23C402.21 590.18 402.66 588.53 400.75 584.64C386.79 556.26 360.88 545.23 332.39 536.76C333.7 541.14 336.57 543.26 339.78 545.01C344.04 547.35 348.75 548.51 353.33 550C355.57 550.73 357.96 551.35 359.86 554.94C339.31 554.97 319.6 556.9 300.57 547.12L300.58 547.13ZM615.42 1053.92C616.07 1059.79 616.87 1065.19 617.18 1070.61C617.38 1074.02 618.64 1075.04 622.04 1075C639.67 1074.76 657.31 1074.72 674.94 1074.68C691.28 1074.64 691.15 1074.68 689.61 1058.02C689.28 1054.45 688.04 1053.75 684.77 1053.78C666.97 1053.95 649.17 1053.9 631.37 1053.92C626.07 1053.92 620.77 1053.92 615.41 1053.92H615.42ZM1060.12 763.64C1060.12 764.33 1060.12 765.02 1060.12 765.71C1037.98 765.71 1015.83 765.69 993.69 765.72C989.08 765.72 987.76 767.9 988.02 774.7C988.18 778.95 991.48 776.99 993.21 776.95C1021.5 776.22 1049.79 775.34 1078.07 774.4C1094.05 773.87 1110.01 775.45 1126 774.46C1132.09 774.08 1129.48 770.28 1129.81 767.56C1130.25 763.91 1128.34 763.51 1125.03 763.54C1103.39 763.74 1081.76 763.64 1060.12 763.64ZM482.91 949.29C482.69 968.41 483.28 986.41 482.27 1004.39C481.73 1013.92 488.4 1024.23 497.14 1027.86C497.98 1028.21 499.5 1029.06 499.52 1027.65C499.58 1024.79 501.99 1021.41 498.21 1019.12C493.06 1016.02 491.15 1010.88 491.4 1005.48C491.68 999.45 491.05 993.51 491 987.53C490.74 956.54 490 925.56 490.97 894.57C491.19 887.64 491.04 887.73 484.03 887.33C481.81 887.2 481.11 887.63 481.28 889.99C482.73 910.1 482.61 930.26 482.91 949.28V949.29ZM523.9 1014.86C523.94 1014.31 523.99 1013.76 524.03 1013.21C509.48 1008.12 502.71 996.82 499.84 982.67C496.96 968.49 500.82 955.49 508.05 943.06C500.57 941.06 498.7 935.72 498.57 929.21C498.35 918.35 503.48 909.53 510.1 901.74C514.44 896.63 516.65 891.41 516.73 884.81C516.81 878.5 517.49 872.19 518.07 865.89C518.32 863.13 516.84 862.8 514.77 863.06C513.54 863.22 511.77 862.21 511.87 865.03C512.29 876.98 509.67 881.36 499.06 885.55C496.08 886.73 495.99 888.34 496.13 890.81C497.59 916.09 497.43 941.41 497.36 966.72C497.33 978.38 496.97 990.03 496.87 1001.69C496.81 1008.79 501.1 1014.64 506.54 1014.81C512.32 1014.99 518.11 1014.85 523.9 1014.85V1014.86ZM653.13 1185.38C656.07 1181.81 657.03 1178.26 657.93 1174.75C662.5 1156.92 663.94 1138.7 663.79 1120.38C663.66 1104.27 665.99 1107.67 650.22 1107.24C650.05 1107.24 649.89 1107.25 649.72 1107.24C647.66 1107.07 646.93 1107.85 646.8 1110.07C645.78 1127.35 645 1144.63 647.08 1161.87C648.03 1169.69 648.77 1177.66 653.13 1185.37V1185.38ZM1080.39 738.78C1101.07 739.93 1118.05 739.97 1135.03 739.87C1142.27 739.83 1142.14 739.85 1142.7 732.75C1143 728.94 1142.12 727.46 1137.87 727.79C1125.1 728.77 1112.3 729.49 1099.5 729.97C1076.38 730.83 1053.25 731.53 1030.11 732.08C1026.54 732.16 1025.81 734.05 1025.75 736.69C1025.67 740.27 1028.63 738.68 1030.14 738.69C1048.12 738.82 1066.1 738.77 1080.38 738.77L1080.39 738.78ZM303.21 798.68C320.19 798.68 336.83 798.65 353.47 798.71C356.74 798.72 356.49 797.4 355.44 795.03C350.54 783.94 339.18 776.51 327.79 777.12C316.8 777.71 306.92 786.22 303.2 798.68H303.21ZM215.91 744.32C214.83 743 213.83 741.71 212.77 740.46C192.31 716.58 171.82 692.74 151.44 668.79C149.6 666.63 148.93 666.42 146.77 668.59C143.86 671.52 145.29 673.24 147.24 675.57C165.61 697.51 183.92 719.49 202.24 741.47C205.813 745.756 210.37 746.703 215.91 744.31V744.32ZM652.8 1080.9V1081C647.47 1081 642.15 1081.1 636.83 1080.96C634.34 1080.89 633.64 1081.76 634.05 1084.16C634.84 1088.74 635.52 1093.35 636.07 1097.97C636.33 1100.19 637.19 1101.13 639.54 1101.11C649.19 1101.04 658.84 1101.06 668.49 1101.19C671.15 1101.23 672.01 1100.18 671.86 1097.64C671.6 1093.16 671.43 1088.67 671.41 1084.18C671.4 1081.57 670.3 1080.78 667.78 1080.86C662.79 1081.02 657.8 1080.91 652.8 1080.91V1080.9ZM257.88 766.97C243.62 747.36 206.85 749.56 188.25 766.97H257.88ZM195.66 581.14C176.32 607.77 157.19 634.19 137.95 660.53C136.06 663.11 137.44 664.5 139.11 665.95C141.76 668.24 142.09 665.07 142.91 664C160.62 640.86 178.23 617.65 195.89 594.48C200.61 588.29 200.67 588.33 195.66 581.14ZM839.37 729.7C838.19 744.83 837.15 758.5 836.04 772.16C835.85 774.53 837.07 774.93 839.03 774.91C845.02 774.84 851.01 774.78 856.99 774.88C859.37 774.92 860.08 774.07 860.16 771.7C860.3 767.74 859.14 764.43 857.13 761.03C851.26 751.11 845.73 740.98 839.37 729.7ZM260.81 635.11C267.75 638.7 273.92 641.56 280.72 642.73C287.49 643.9 292.46 641.38 293.69 635.69C295.17 628.85 294.09 622.14 291.41 615.67C290.61 613.73 289.69 613.55 288.08 614.76C279.2 621.42 270.3 628.04 260.81 635.11ZM485.73 863.11V863.13C481.9 863.13 478.07 863.28 474.25 863.08C471.56 862.94 470.28 864.3 469.47 866.51C468 870.55 469.47 873.63 472.66 876.14C479.92 881.86 494.95 880.97 501.45 874.42C503.29 872.56 504.69 870.43 503.62 867.73C502.51 864.93 500.55 863.04 497.22 863.1C493.39 863.16 489.57 863.11 485.74 863.11H485.73ZM936.91 767.85C935.96 774.63 935.96 774.65 942.74 773.97C946.08 773.63 949.23 772.68 952.28 771.24C956.22 769.38 957.42 766.37 956.72 762.24C955.11 752.69 951.12 749.51 940.09 748.55C937.53 748.33 936.84 749.01 936.88 751.38C936.96 756.87 936.91 762.36 936.91 767.85ZM810.18 862.08C815.66 868.6 819.66 874.51 823.18 880.74C823.86 881.94 824.59 882.81 826.25 882.8C835.54 882.72 841.52 873.11 837.51 864.59C836.84 863.16 835.98 862.07 834.17 862.08C826.58 862.11 818.98 862.09 810.18 862.09V862.08ZM798.35 1032.58H798.77C798.77 1030.26 798.77 1027.94 798.77 1025.63C798.77 1024.01 799.14 1022.31 796.84 1021.69C794.16 1020.98 794.34 1023.1 793.8 1024.5C792.18 1028.66 790.63 1032.84 789.01 1037C785.88 1045.07 785.86 1044.97 794.49 1043.94C797.36 1043.6 798.61 1042.46 798.39 1039.53C798.22 1037.23 798.36 1034.9 798.36 1032.58H798.35ZM185.15 532.97C194.05 525.73 202.74 518.65 212.14 511C199.34 510.58 186.42 521.45 185.15 532.97ZM318.17 547.47C315.29 543.49 312.61 539.72 309.84 536C309.19 535.13 308.5 533.69 307.17 534.26C305.69 534.9 306.05 536.53 306.15 537.83C306.67 544.57 309.38 546.8 318.16 547.47H318.17ZM799.48 1006.99C798.54 1009.75 797.85 1011.61 797.28 1013.5C797.01 1014.38 796.57 1015.95 797.95 1015.85C804.79 1015.32 805.3 1019.36 805.21 1024.68C805.17 1027.24 807.84 1025.83 809.18 1025.62C811.08 1025.32 810.25 1024.02 809.62 1023.02C806.44 1017.98 803.26 1012.96 799.48 1006.98V1006.99ZM638.59 495.11C636.65 498.8 634.86 502.22 632.98 505.79C638.513 506.55 640.89 504.483 640.11 499.59C639.91 498.32 640.17 496.93 638.59 495.1V495.11Z" fill="black"/>
<path d="M636.1 59.8203C662.79 60.1803 682.01 74.8903 694.16 99.7803C701.79 115.41 704.35 132.08 701.94 149.38C700.29 161.27 694.14 170.86 686.13 179.39C678.83 187.17 671.37 194.78 663.97 202.46C653.24 213.61 648.08 227.21 646.22 242.33C645.99 244.21 646.27 245.14 648.14 245.5C649.12 245.68 650.1 245.94 651.02 246.3C654.02 247.47 657.26 248.71 657.45 252.48C657.65 256.35 654.57 258.06 651.45 258.81C648.33 259.56 648.2 261.51 648.11 263.97C647.66 276.14 646.46 288.21 643.03 299.96C641.95 303.65 640.57 307.22 638.5 310.47C633.06 319.03 625.58 319.22 619.83 310.9C615.1 304.04 612.96 296.13 611.23 288.17C609.35 279.54 608.23 270.77 608.67 261.9C608.76 260.11 608.53 259.03 606.68 258.59C605.88 258.4 605.09 258.08 604.34 257.74C601.52 256.45 598.85 254.9 599.06 251.26C599.25 247.92 601.74 246.07 604.57 245.59C608.95 244.84 609.03 242.52 608.57 238.87C607.28 228.67 603.39 219.63 597.14 211.58C592.24 205.26 587.04 199.18 582.18 192.83C569.58 176.37 559.65 158.63 556.86 137.66C553.31 110.94 563.92 90.5203 585.37 75.3703C599.88 65.1103 616.27 60.0303 636.08 59.8403L636.1 59.8203ZM626.9 243.06C626.9 242.99 626.9 242.93 626.9 242.86C629.89 243.03 632.94 242.91 635.87 243.45C638.57 243.94 638.99 242.98 638.89 240.64C638.02 220.91 646.47 204.9 658.91 190.46C665.98 182.26 673.01 174.02 679.87 165.64C684.27 160.26 687.16 154.04 687.88 147.08C689.11 135.2 688.52 123.39 684.5 112.04C677.88 93.3603 666.78 78.8503 646.56 73.6303C635.12 70.6803 623.64 71.6703 612.54 75.2503C592.22 81.8103 576.09 93.4003 569.73 114.92C565.45 129.42 568.18 143.61 573.64 157.39C579.1 171.16 587.4 183.18 596.41 194.81C605.14 206.08 612.59 218 614.75 232.56C615.28 236.09 612.81 241 615.63 242.69C618.44 244.38 623.07 243.06 626.89 243.06H626.9ZM641.93 268.64C642.15 261.1 642.15 261.16 635.46 261.24C631.14 261.29 626.8 260.93 622.5 261.15C619.24 261.32 614.88 258.62 613.19 261.04C611.78 263.04 613.54 267.36 614.1 270.62C615.96 281.42 617.58 292.3 622.12 302.4C623.66 305.82 625.08 310.65 629.26 310.49C633.42 310.33 634.53 305.38 635.84 301.9C639.96 290.9 641.16 279.32 641.94 268.64H641.93ZM607.95 251.32C618.13 256.06 641.3 256.34 649.18 251.95C635.43 248.02 622.24 248.13 607.95 251.32Z" fill="black"/>
<path d="M1008.86 477.63C1009.02 476.15 1008.93 474.58 1009.39 473.2C1010.35 470.32 1012.33 468.21 1015.53 468.15C1019.02 468.08 1021.57 470.3 1021.75 473.49C1022.11 479.77 1025.33 479.4 1029.99 478.4C1043.48 475.53 1057.17 473.66 1070.59 470.4C1075.11 469.3 1078.09 471.86 1078.87 477.34C1080.02 485.41 1080.93 493.51 1081.96 501.6C1085.87 532.29 1090.59 562.83 1098.5 592.8C1098.8 593.92 1099.06 595.06 1099.32 596.19C1101.04 603.55 1099.08 607.17 1091.78 609.35C1083.63 611.79 1075.15 612.61 1066.78 613.88C1040.98 617.81 1015.15 621.56 989.34 625.5C978.19 627.2 973.14 623.98 970.77 612.84C968.65 602.87 968.71 592.66 968.1 582.54C966.92 562.94 966.07 543.31 964.98 523.7C964.5 515.04 962.47 506.61 960.64 498.16C959.55 493.12 960.51 492 965.33 491.08C979.04 488.47 992.7 485.56 1006.41 482.96C1010.13 482.26 1008.91 479.78 1008.84 477.62L1008.86 477.63ZM1025.06 492.81C1025.59 497.5 1024.28 500.86 1019.89 501.63C1015.49 502.41 1012.85 499.63 1012.16 495.62C1011.54 492.02 1009.95 492.09 1006.99 492.67C995.73 494.87 984.41 496.95 972.94 497.62C969.11 497.84 968.58 499.36 969.16 502.55C973.36 525.73 972.84 549.31 975.03 572.66C976.21 585.24 976.31 597.94 978.94 610.36C980.29 616.76 981.5 617.39 987.83 616.48C1003.47 614.23 1019.13 612.11 1034.77 609.88C1051.4 607.5 1068.09 605.55 1084.54 602.05C1091.41 600.59 1091.45 600.53 1089.84 594.05C1085.31 575.8 1081.96 557.33 1078.83 538.8C1075.75 520.59 1073.29 502.3 1070.87 484C1070.61 482.05 1071.09 479.49 1067.31 480.35C1054.51 483.26 1041.66 485.98 1028.78 488.54C1025.76 489.14 1024.1 490.01 1025.08 492.81H1025.06Z" fill="black"/>
<path d="M939.01 301.2C939.67 303.74 936.28 307.15 938.84 309.27C940.91 310.99 944.45 310.97 947.36 311.64C956.92 313.83 966.5 315.95 976.05 318.18C983.2 319.85 984.54 322.04 982.63 329.24C972.79 366.35 962.91 403.46 953 440.55C950.73 449.05 949.73 449.6 941.57 446.97C911.18 437.18 880.25 429.31 849.43 421.05C848.15 420.71 846.86 420.35 845.6 419.94C840.26 418.17 839.33 416.52 840.83 410.99C847.01 388.38 853.33 365.82 859.41 343.18C863.16 329.22 867.53 315.42 870.19 301.18C870.94 297.17 873.25 296.31 877.09 297.01C891.98 299.71 906.86 302.47 921.59 305.96C925.03 306.78 927.27 306.55 928.12 302.59C928.46 301.01 929.43 299.54 930.26 298.1C931.54 295.88 933.08 293.61 936.09 294.62C938.95 295.58 939.23 298.2 939.02 301.21L939.01 301.2ZM971.49 331.81C972.69 327.47 970.38 327.44 968.44 326.99C958.56 324.7 948.68 322.46 938.83 320.03C935.92 319.31 933.8 319.2 931.46 321.86C928.72 324.98 924.67 323.89 923.93 319.9C923.29 316.45 921.26 315.87 918.6 315.19C906.2 312.02 893.78 308.93 881.48 305.44C877.75 304.38 876.28 304.92 875.33 308.82C867.23 341.91 858.99 374.96 850.64 407.98C849.95 410.7 850.34 411.79 853.03 412.63C882.06 421.68 911.03 430.9 940.4 438.83C943.76 439.74 944.86 438.81 945.66 435.53C950.26 416.64 955.14 397.82 959.85 378.96C963.88 362.84 967.81 346.69 971.48 331.82L971.49 331.81Z" fill="black"/>
<path d="M704.13 237.33C695.91 236.93 686.46 227.21 686.4 219.09C686.37 214.48 689.98 211.22 694.72 212.27C702.82 214.07 708.79 219.04 712.15 226.55C714.77 232.4 710.6 237.64 704.13 237.33Z" fill="black"/>
<path d="M569.95 212.43C569.87 214.49 568.95 216.6 567.52 218.48C563.64 223.57 558.53 226.89 552.24 227.92C546.68 228.84 543.23 224.78 545.42 219.8C548.15 213.57 552.59 208.57 558.85 205.69C564.43 203.11 569.93 206.46 569.96 212.44L569.95 212.43Z" fill="black"/>
<path d="M530 137.139C530.33 137.139 530.67 137.139 531 137.139C538.06 137.259 542.53 140.089 542.86 144.639C543.19 149.259 538.48 153.119 531.62 153.679C527.43 154.019 523.31 153.389 519.39 151.879C516.5 150.769 513.98 149.079 513.96 145.499C513.94 141.939 516.35 140.189 519.28 139.049C522.72 137.719 526.31 137.119 530 137.129V137.139Z" fill="black"/>
<path d="M727.56 137.83C728.19 137.88 729.19 137.88 730.17 138.04C735.77 138.94 739.75 142.89 739.59 147.33C739.44 151.7 735.71 155.02 729.98 155.77C726.61 156.22 723.37 155.56 720.28 154.19C716.94 152.71 714.02 150.65 714.12 146.59C714.22 142.36 717.3 140.32 720.85 138.84C722.9 137.99 725.03 137.84 727.56 137.82V137.83Z" fill="black"/>
<path d="M710.93 57.6192C714.87 57.6392 717.31 60.1792 717.34 64.3092C717.39 70.2692 710.21 78.3092 704.28 78.9392C700.19 79.3692 697.16 76.7992 696.88 72.6792C696.43 65.9692 704.24 57.5892 710.92 57.6192H710.93Z" fill="black"/>
<path d="M556.41 61.2597C561.22 61.1397 568.74 66.8197 569.88 71.5597C570.53 74.2697 570.24 76.8697 567.97 78.8297C565.82 80.6897 563.38 81.3397 560.6 80.3397C555.41 78.4597 552 74.8097 550.44 69.5997C549.16 65.3197 552.15 61.3597 556.41 61.2597Z" fill="black"/>
<path d="M637.98 39.2508C638.09 45.5208 635.91 48.8209 631.88 49.2409C627.55 49.6909 623.74 46.2008 623.09 41.0008C622.63 37.3208 623.09 33.7109 624.97 30.4509C627.64 25.8409 632.21 25.6808 635.29 30.0708C637.36 33.0308 637.82 36.4708 637.97 39.2508H637.98Z" fill="black"/>
<path d="M638.96 681.31C617.06 681.02 599.68 663.56 600.06 642.23C600.44 621.01 618.95 603.35 640.47 603.7C661.76 604.04 678.4 621.25 678.17 642.7C677.94 664.55 660.62 681.6 638.95 681.32L638.96 681.31ZM608.82 642.58C608.87 659.9 621.98 673.46 638.67 673.46C655.62 673.46 669.12 659.97 669.06 643.09C669.01 625.93 655.03 612.38 637.6 612.6C621.2 612.8 608.77 625.75 608.82 642.58Z" fill="black"/>
<path d="M677.14 477.85C676.78 481.16 674.49 482.34 671.9 480.99C666.1 477.97 660.09 476.8 653.63 477.03C651.19 477.12 650.06 475.17 651.63 473.38C655.02 469.5 659.84 469.31 664.56 469.82C669.45 470.34 674.07 471.66 676.81 476.33C677.05 476.73 677.02 477.29 677.13 477.86L677.14 477.85Z" fill="black"/>
<path d="M657.03 493.701C657.11 487.421 659.65 482.671 662.45 483.291C667.33 484.381 667.78 488.621 667.89 492.751C667.92 494.081 668.04 495.481 667.67 496.721C666.92 499.261 665.48 501.241 662.43 501.201C659.42 501.161 657.91 499.311 657.27 496.671C656.96 495.401 657.05 494.031 657.03 493.701Z" fill="black"/>
<path d="M613.19 469.65C615.66 469.84 618.48 469.6 618.83 472.66C619.19 475.72 616.41 476.52 614.18 476.75C608.66 477.34 603.5 478.84 598.65 481.51C597.48 482.15 596.06 482.8 595.05 481.51C593.94 480.09 594.82 478.63 595.78 477.48C600.35 472.02 606.53 470.09 613.19 469.65Z" fill="black"/>
<path d="M606.58 491.379C606.33 489.879 606.31 488.419 606.82 486.949C607.64 484.619 609.42 483.389 611.69 483.319C614.19 483.239 615.7 484.949 616.04 487.299C616.4 489.749 616.57 492.269 616.44 494.739C616.27 497.879 614.8 500.289 611.24 500.149C607.69 500.009 606.57 497.429 606.34 494.349C606.27 493.369 606.49 492.369 606.57 491.379H606.58Z" fill="black"/>
<path d="M657.54 155.09C650.88 152.88 643.69 153.79 636.44 154.92C634.56 155.21 632.42 154.79 630.57 154.18C625.44 152.52 620.41 151.92 614.94 152.65C607.68 153.62 601.23 149.55 598.71 143.54C597.85 141.48 597.07 139.13 598.98 137.53C601.12 135.75 602.57 138.01 603.96 139.31C607.12 142.26 610.69 143.38 614.96 142.27C620.4 140.86 625.79 141.01 631.13 142.94C634.32 144.09 637.55 144.01 640.93 143.32C649 141.67 657.18 143.47 665.31 142.99C667.39 142.87 669.27 143.88 669.97 146.06C670.73 148.4 669.73 150.27 667.93 151.78C665.09 154.18 661.57 154.41 657.53 155.08L657.54 155.09Z" fill="black"/>
<path d="M1064.71 519.42C1061.59 523.05 1058.14 524.14 1054.64 525C1038.92 528.84 1022.87 530.41 1006.82 532.06C1003.35 532.41 999.87 532.65 996.39 532.88C995.23 532.95 993.68 532.94 993.36 531.7C992.95 530.09 994.58 529.49 995.77 529.02C1002.15 526.5 1008.87 525.23 1015.58 524.17C1029.04 522.04 1042.55 520.27 1056.04 518.33C1058.76 517.94 1061.26 518.83 1064.7 519.44L1064.71 519.42Z" fill="black"/>
<path d="M1049.17 540.67C1052.33 541.2 1057.7 538.92 1058.5 542.72C1059.04 545.31 1053.1 546.06 1049.82 546.72C1039.07 548.87 1028.24 550.59 1017.3 551.51C1015.84 551.63 1013.8 552.13 1013.27 550.51C1012.55 548.3 1014.96 547.9 1016.35 547.4C1026.87 543.55 1037.77 541.48 1049.18 540.69L1049.17 540.67Z" fill="black"/>
<path d="M895.53 337.869C909.85 340.289 924.51 342.419 938.43 347.769C940.94 348.739 943.19 350.189 944.94 352.269C945.89 353.389 947.34 354.699 946.55 356.169C945.64 357.849 943.67 357.269 942.05 357.109C941.72 357.079 941.39 357.009 941.07 356.919C926.39 352.629 911.71 348.349 897.03 344.049C896.07 343.769 895.11 343.459 894.21 343.039C892.62 342.289 890.13 341.909 890.57 339.639C891.04 337.219 893.54 338.279 895.53 337.869Z" fill="black"/>
<path d="M914.99 367.481C904.41 369.701 896.16 366.401 887.96 362.961C886.89 362.511 885.96 361.511 886.38 360.201C886.84 358.751 888.23 358.171 889.57 358.291C898.35 359.061 906.94 360.451 914.99 367.491V367.481Z" fill="black"/>
</svg>
