<svg width="1280" height="1280" viewBox="0 0 1280 1280" fill="none" xmlns="http://www.w3.org/2000/svg">
<path d="M174.259 734.8C167.879 727.2 162.459 720.51 157.839 713.23C154.709 708.31 151.619 703.36 149.979 697.7C149.329 695.44 148.789 693.02 150.779 691.14C153.029 689 155.779 689.48 158.299 690.47C165.499 693.29 171.779 697.68 177.889 702.33C179.429 703.5 180.939 704.72 183.459 706.7C180.649 699.16 178.179 692.88 175.979 686.52C174.949 683.55 174.349 680.42 173.739 677.33C173.379 675.49 173.529 673.56 175.399 672.47C177.149 671.45 178.949 671.73 180.539 672.94C196.219 684.82 212.219 696.38 222.169 714.06C222.409 714.49 222.779 714.84 223.449 715.7C224.469 712.34 223.869 709.28 223.959 706.3C224.079 702.32 223.529 698.31 224.669 694.38C226.239 688.98 230.249 687.84 234.299 691.81C235.829 693.31 237.199 695.05 238.349 696.87C249.079 713.98 255.769 732.63 259.809 752.63C265.669 749.33 269.369 753.52 273.279 758.04C277.459 747.79 280.649 737.85 285.549 728.64C286.689 726.5 285.229 724.06 284.919 721.79C280.769 691.54 286.809 663.22 300.769 636.33C315.089 608.75 331.009 582.17 352.559 559.56C382.179 528.49 418.909 513.52 461.729 514.17C481.909 514.48 499.589 522.42 515.359 534.75C520.479 538.75 525.379 543.02 530.479 547.06C536.759 552.03 540.249 558.69 542.359 566.21C545.549 577.6 549.079 588.86 554.149 599.57C554.819 600.99 555.179 602.46 557.319 602.95C570.569 605.93 577.069 613.85 577.889 627.8C578.039 630.28 578.339 633.01 577.519 635.24C575.259 641.37 577.319 646.12 580.429 651.43C587.589 663.63 596.149 674.58 606.669 683.97C618.769 694.77 629.619 696.49 642.479 686.53C646.429 683.47 650.269 680.27 654.009 676.97C656.489 674.78 658.699 672.3 661.499 669.48C656.829 668.5 652.589 669 648.399 668.92C643.409 668.82 638.399 669.2 633.429 668.4C631.159 668.04 628.449 668.15 627.849 665.19C627.199 661.96 629.869 660.92 632.079 659.83C636.239 657.78 640.479 655.87 645.689 653.43C641.789 653.04 638.819 652.79 635.859 652.43C634.169 652.23 632.419 651.83 632.149 649.75C631.889 647.77 633.309 646.68 634.859 645.98C639.089 644.07 643.369 642.27 648.679 639.97C643.579 638.73 639.339 637.77 635.149 636.65C633.529 636.22 631.919 635.49 631.839 633.41C631.769 631.44 632.919 630.36 634.689 629.83C650.859 624.98 667.079 620.62 684.219 623.99C685.029 624.15 685.829 624.39 686.629 624.62C695.069 627.11 695.029 627.08 700.209 620.06C713.589 601.92 724.939 582.55 735.079 562.45C736.029 560.56 737.249 558.68 737.079 556.09C728.939 556.25 720.799 556.61 712.749 555.26C706.299 554.18 704.159 551.83 704.079 545.26C704.029 540.93 704.149 536.6 704.319 532.27C704.489 527.98 705.299 523.72 704.769 519.16C689.859 523.36 675.159 527.52 660.129 530.34C634.919 535.06 610.099 533.9 585.869 525.03C582.959 523.97 581.769 524.01 581.589 527.5C581.369 531.81 580.609 536.1 580.179 540.4C579.709 545.13 577.069 547.71 572.429 547.94C565.429 548.29 558.469 549.03 551.649 550.57C548.819 551.21 548.199 549.33 547.049 547.82C534.899 531.92 520.229 519.09 501.619 511.3C480.929 502.65 459.459 502.34 437.789 506.35C394.119 514.43 358.549 535.37 330.869 570.76C312.199 594.62 294.489 618.75 282.679 646.81C282.019 648.38 281.389 650.23 279.399 647.78C259.499 623.21 248.999 596.46 261.129 564.96C267.379 548.72 278.899 537.02 294.619 529.55C298.219 527.84 301.999 526.5 305.729 525.07C328.269 516.42 335.299 504.77 332.549 480.68C331.209 468.94 329.719 457.21 328.699 445.43C327.639 433.18 329.439 421.21 333.169 409.48C339.519 389.51 353.179 378.27 373.729 375.02C382.969 373.56 392.269 373.1 401.609 373.02C426.479 372.82 436.849 363.98 440.319 339.43C442.659 322.85 439.779 306.58 436.499 290.37C434.619 281.1 432.299 271.88 433.719 262.21C435.889 247.4 443.559 236.57 456.789 229.85C463.899 226.24 471.279 223.12 478.659 220.1C490.929 215.08 499.379 206.47 504.059 194.11C508.059 183.53 511.579 172.75 516.099 162.41C528.319 134.43 545.629 109.92 568.229 89.3303C586.429 72.7503 608.149 63.6903 632.539 61.1303C662.119 58.0303 691.749 57.6403 721.319 61.0403C754.919 64.9003 782.039 79.9003 800.739 108.67C802.439 111.29 804.339 111.9 807.229 112.07C821.619 112.95 835.549 115.87 848.799 121.78C869.199 130.88 882.609 146.86 892.069 166.38C910.489 204.37 914.669 243.61 901.449 284.22C898.619 292.91 896.119 301.72 893.779 310.55C891.369 319.65 892.499 328.38 897.549 336.48C899.129 339.02 900.539 341.69 902.229 344.15C914.099 361.36 917.029 380.14 912.579 400.38C911.189 406.71 910.039 413.11 910.019 419.65C909.999 426.3 912.819 431.11 918.719 434.21C924.049 437.01 929.729 438.91 935.309 441.09C971.369 455.2 988.909 490.76 978.349 528.17C974.819 540.66 968.899 552.38 966.609 565.25C966.579 565.41 966.499 565.57 966.469 565.73C963.669 579.1 963.699 578.8 976.859 580.08C1023.39 584.62 1058.04 631.05 1036.77 679.35C1033.36 687.09 1028.14 693.65 1021.85 699.17C1018.76 701.88 1017.75 704.6 1017.88 708.6C1018.22 719.58 1016.12 730.18 1011.14 740.02C1009.62 743.04 1010.36 744.22 1013.04 745.75C1025.48 752.85 1035.24 762.66 1041.91 775.41C1043.45 778.36 1044.95 781.35 1045.26 784.75C1045.77 790.38 1042.31 793.77 1036.74 792.78C1033.15 792.14 1029.65 790.99 1026.1 790.1C1023.98 789.57 1023.07 789.98 1023.58 792.57C1024.71 798.28 1025.62 804.06 1025.32 809.92C1024.79 820.46 1019.37 823.85 1009.74 819.78C1009.01 819.47 1008.24 819.25 1007.45 818.97C1004.4 835.14 1002.83 836.55 991.179 833.45C991.179 837.6 991.179 841.69 991.179 845.79C991.219 936.59 969.149 1021.16 918.769 1097.3C886.029 1146.78 843.169 1184.84 787.719 1207.6C779.569 1210.94 771.179 1213.69 762.869 1216.61C760.359 1217.49 757.649 1218.31 755.379 1216.01C753.969 1214.58 752.589 1215.53 751.199 1215.79C721.169 1221.46 690.989 1225.33 660.329 1222.97C646.709 1221.92 633.129 1220.55 619.879 1217.04C616.999 1216.28 614.179 1215.23 611.419 1214.1C609.039 1213.13 606.799 1211.69 606.919 1208.73C607.039 1205.7 609.509 1204.59 611.969 1203.97C617.609 1202.54 623.279 1201.26 628.959 1200.02C634.309 1198.86 639.689 1197.83 645.339 1196.68C643.019 1194.73 640.399 1195.33 638.059 1194.8C629.389 1192.82 621.099 1189.93 613.799 1184.71C612.189 1183.56 611.119 1182.62 609.569 1185.07C608.049 1187.46 605.019 1187.6 602.409 1188.04C589.419 1190.22 576.349 1191.53 563.189 1192.11C561.769 1192.17 560.229 1191.74 558.509 1192.93C562.089 1195.49 565.609 1197.81 568.879 1200.43C570.919 1202.06 573.359 1203.92 572.669 1206.97C571.909 1210.29 568.749 1210.15 566.149 1210.43C551.269 1212.02 536.539 1210.25 521.879 1208.01C497.199 1204.24 473.089 1197.95 451.679 1184.85C421.119 1166.14 391.479 1146.01 366.319 1120.09C315.249 1067.49 280.369 1005.65 261.049 935.02C254.319 910.42 248.949 885.53 249.149 859.81C249.179 856.16 249.149 852.35 250.169 848.92C251.389 844.8 249.609 843.04 246.629 840.94C239.139 835.66 231.709 830.26 225.659 823.27C221.599 818.58 218.599 813.48 220.689 806.91C221.329 804.91 220.199 804.4 218.679 803.68C199.609 794.66 181.679 783.27 161.439 776.64C156.419 775 151.709 772.22 148.189 767.99C143.659 762.56 145.469 756.8 152.319 755.1C155.169 754.4 158.119 754.14 161.749 753.56C157.969 750.84 154.629 748.52 151.369 746.08C147.899 743.48 144.639 740.61 141.859 737.26C139.919 734.93 137.679 732.38 139.479 729.23C141.319 726.02 144.709 726.71 147.609 727.44C153.889 729.02 160.109 730.85 166.359 732.59C168.549 733.2 170.749 733.82 174.239 734.8H174.259ZM197.869 725.23C195.319 726.44 193.459 725.23 191.669 723.54C187.679 719.77 183.749 715.91 179.579 712.34C172.819 706.56 165.669 701.34 156.529 697.19C158.179 702.03 160.259 705.38 162.359 708.69C168.099 717.71 175.009 725.81 182.069 733.8C184.319 736.34 188.839 738.72 186.129 742.88C183.239 747.31 179.159 743.87 175.759 742.84C168.129 740.53 160.609 737.87 153.019 735.42C151.889 735.05 150.639 734.34 149.089 735.62C156.409 742.51 164.809 747.44 173.579 751.83C176.159 753.12 178.959 754.5 178.099 758.07C177.209 761.79 173.909 761.27 171.139 761.3C166.649 761.34 162.149 761.17 157.659 761.22C156.079 761.24 153.879 761.08 153.389 762.8C152.939 764.37 155.019 765.08 156.189 765.89C159.489 768.18 163.129 769.85 166.929 771.11C181.819 776.04 196.099 782.27 209.629 790.25C213.199 792.35 217.179 793.73 220.849 795.67C223.959 797.32 225.689 796.64 227.639 793.62C235.469 781.43 243.799 769.57 253.599 758.85C256.119 756.09 258.359 754.15 254.989 750.21C252.939 747.81 252.269 744.21 251.059 741.12C246.569 729.66 242.139 718.17 235.889 707.52C234.039 704.37 232.439 700.93 229.359 698.6C227.919 700.43 228.149 702.34 227.859 704.13C226.939 709.69 228.039 716 225.199 720.71C220.119 729.14 217.609 737.57 219.789 747.27C220.039 748.38 220.599 750.29 218.879 750.7C217.389 751.05 216.749 749.31 216.129 748.22C210.999 739.24 212.369 730.51 218.019 722.47C220.119 719.49 219.699 717.9 217.699 715.31C208.099 702.88 196.039 693.27 183.179 684.54C182.659 684.19 182.079 683.68 181.329 684.66C184.959 696.67 189.849 708.26 196.699 718.97C198.039 721.07 199.079 722.97 197.759 725.39L197.909 725.23H197.869ZM538.739 309.41C538.829 309.89 538.999 310.36 538.999 310.84C538.999 312.84 538.999 314.84 538.919 316.83C538.169 338.84 538.589 360.76 542.959 382.47C549.599 415.47 561.819 445.83 584.299 471.48C620.609 512.9 673.809 522.71 722.329 496.78C745.979 484.14 764.909 466.11 781.039 444.93C788.829 434.71 795.509 423.79 801.449 412.4C802.689 410.02 804.249 406.84 807.329 408.51C814.329 412.29 820.849 410.29 826.819 407.07C846.999 396.19 858.029 378.76 859.639 356.14C860.849 339.13 848.769 329.9 832.079 333.67C830.619 334 829.199 334.51 827.729 334.74C824.759 335.2 823.189 336.79 822.309 339.73C820.449 345.94 818.049 351.97 815.109 357.77C813.819 360.31 811.899 361.82 809.089 360.75C806.519 359.78 806.039 357.5 806.639 354.93C807.649 350.56 808.699 346.19 809.579 341.79C811.089 334.2 814.049 326.93 812.559 318.77C810.469 307.36 805.069 297.83 797.629 289.32C786.169 276.21 780.029 260.94 777.839 243.8C776.799 235.65 776.559 227.44 775.839 218.76C771.799 221.69 768.429 224.38 764.819 226.7C740.779 242.2 714.869 249.85 686.089 245.01C673.599 242.91 662.319 237.53 651.389 231.48C642.289 226.43 632.779 225.72 622.849 227.57C620.949 227.92 618.739 227.46 617.199 229.13C606.289 240.97 594.179 251.91 588.879 267.91C586.739 274.37 584.569 280.88 580.939 286.72C574.289 297.39 565.459 304.57 552.089 303.97C545.359 303.67 542.479 301.11 541.179 294.53C540.109 289.15 539.149 283.75 538.139 278.35C537.899 277.06 537.969 275.65 536.679 274.79C527.999 269 518.779 264.8 508.089 267.71C497.029 270.72 491.849 279.38 489.139 289.64C482.829 313.59 494.019 344.6 514.009 359.19C518.769 362.66 523.989 365.03 529.829 366.22C533.389 366.94 533.989 365.83 533.939 362.51C533.799 352.69 533.749 342.85 534.209 333.04C534.579 325.04 535.549 317.05 538.749 309.41H538.739ZM564.999 1099.93C569.219 1098.87 574.459 1098.43 577.029 1094.95C578.729 1092.65 574.469 1089.46 573.299 1086.47C573.119 1086.01 572.839 1085.58 572.599 1085.15C558.059 1058.5 551.719 1030.59 559.629 1000.51C568.079 968.38 588.139 944.97 615.229 926.98C620.179 923.69 625.609 921.28 625.769 914.1C625.799 912.61 627.049 911.06 627.959 909.68C631.629 904.14 636.549 899.97 642.469 897.02C644.559 895.98 645.539 895.16 644.139 892.55C635.429 876.4 630.529 859.02 628.049 840.9C627.879 839.69 628.279 837.87 626.239 838C623.199 838.2 621.449 836.02 619.199 834.69C605.459 826.54 591.709 818.39 575.929 814.64C574.529 814.31 572.859 813.13 571.949 814.98C568.759 821.46 563.249 826.54 561.979 834.26C558.389 856 547.509 873.03 527.699 883.59C525.009 885.02 524.839 886.51 525.419 889.15C527.939 900.68 530.259 912.26 532.579 923.83C533.629 929.08 531.629 932.21 526.519 933.54C521.589 934.83 520.519 931.15 519.459 927.79C516.019 916.85 512.529 905.92 509.449 894.88C508.509 891.51 507.449 890.52 503.769 890.84C475.749 893.21 452.179 883.54 432.609 863.67C431.169 862.21 429.689 861.05 427.779 860.3C397.569 848.45 372.119 829.87 350.789 805.56C348.759 803.24 347.559 803.36 345.129 804.83C337.389 809.5 328.889 811.49 319.829 811.03C303.919 810.21 288.879 800.46 286.399 783.63C286.169 782.08 285.579 780.88 284.439 779.76C278.729 774.16 272.969 768.6 267.529 762.75C264.719 759.73 262.909 760.33 260.389 763.04C251.389 772.71 243.659 783.34 236.309 794.26C224.899 811.21 225.349 813.45 241.449 826.29C260.109 841.17 280.659 853.29 300.159 866.93C313.709 876.41 326.759 886.44 337.319 899.34C351.639 916.83 359.609 937.4 365.949 958.72C368.889 968.6 371.399 978.61 375.489 988.11C388.409 1018.14 410.369 1040.6 436.149 1059.62C453.739 1072.6 472.349 1084.19 493.899 1089.42C510.679 1093.49 528.009 1092.44 545.129 1092.83C549.479 1092.93 553.289 1093.67 556.759 1096.39C559.109 1098.23 561.729 1099.75 565.029 1099.96L564.999 1099.93ZM389.319 633.55C388.389 636.52 389.459 639.17 390.209 641.57C391.959 647.19 390.009 651.34 386.069 654.99C382.279 658.5 378.229 661.74 374.589 665.4C362.889 677.18 349.629 687.55 341.189 702.31C333.679 715.45 328.869 729.53 325.899 744.3C325.209 747.76 324.059 749.89 320.059 751.22C311.749 753.99 304.599 759.01 299.739 766.62C291.419 779.64 296.309 794.76 310.799 800.07C323.109 804.58 334.429 802 344.509 793.96C348.189 791.02 350.909 790.86 354.269 794.58C359.519 800.38 365.079 805.92 370.819 811.24C397.329 835.8 427.469 853.46 464.069 857.3C500.489 861.12 530.929 849.3 552.619 819.14C573.889 789.56 577.879 755.68 574.439 720.45C571.359 688.89 560.929 659.53 547.149 631.2C546.139 629.13 544.929 627.68 542.829 626.69C533.499 622.28 524.279 617.65 514.929 613.3C498.709 605.75 481.879 604.83 464.709 609.3C445.999 614.17 429.609 623.52 414.969 635.98C410.069 640.15 404.949 640.8 399.239 638.2C395.939 636.69 392.659 635.13 389.289 633.56L389.319 633.55ZM787.729 727.84C787.429 727.74 787.139 727.64 786.839 727.54C785.749 729.17 784.659 730.81 783.549 732.43C782.329 734.21 781.149 736.04 779.819 737.74C775.789 742.87 772.419 744 766.269 741.81C762.839 740.59 759.569 738.88 756.329 737.21C748.209 733.01 740.299 728.34 732.009 724.52C720.319 719.14 708.279 718.69 696.149 723.5C689.459 726.15 683.099 729.36 677.239 733.53C673.929 735.88 670.589 738.14 666.229 736.69C664.009 735.95 663.699 737.88 662.999 738.98C640.249 774.25 631.299 811.99 640.929 853.7C652.359 903.27 696.179 958.99 771.709 956.86C812.879 955.7 848.169 939.37 877.169 910.03C881.629 905.52 884.349 904.17 892.219 907.56C896.499 909.41 900.629 911.53 905.219 912.55C920.369 915.92 931.929 907.91 933.789 892.71C935.469 878.97 924.189 861.07 911.119 856.48C909.289 855.84 908.529 856.04 907.719 857.83C898.979 877.2 880.669 883.86 862.949 891.15C858.889 892.82 856.069 889.87 857.079 885.56C857.409 884.13 858.199 882.8 858.809 881.44C862.579 873.04 865.579 864.39 866.049 855.13C867.519 825.75 856.769 800.51 839.369 777.6C837.109 774.62 834.099 772.58 830.609 771.2C822.519 768 820.989 765.48 821.869 756.83C822.099 754.52 822.689 752.24 822.829 749.92C823.119 745.29 825.389 740.89 824.729 735.08C821.839 738.7 819.109 741.29 817.399 744.42C811.839 754.59 803.299 756.01 793.089 753.6C786.619 752.08 784.359 749.14 785.299 742.57C786.009 737.65 786.929 732.76 787.749 727.86L787.729 727.84ZM942.129 794.89C941.569 799.84 941.139 804.41 940.519 808.95C938.449 824.08 933.339 838.32 927.689 852.39C926.539 855.24 926.799 857.08 929.159 859.32C935.059 864.91 939.119 871.78 941.539 879.56C948.479 901.82 935.579 921.58 912.509 923.57C903.139 924.38 894.849 920.94 887.619 915.03C886.169 913.85 885.369 912.52 883.339 914.71C870.799 928.25 856.579 939.7 840.239 948.38C838.499 949.31 838.239 950.11 838.549 952.21C839.789 960.65 840.329 969.19 836.579 977.22C835.379 979.8 836.989 980.86 838.229 982.33C854.349 1001.49 858.329 1023.52 848.149 1045.79C830.659 1084.07 800.559 1108.32 759.149 1117.75C756.679 1118.31 755.449 1118.54 755.719 1121.66C758.089 1149.2 761.399 1176.63 765.019 1204.04C765.359 1206.63 766.199 1207.08 768.539 1206.18C772.879 1204.51 777.379 1203.24 781.689 1201.49C824.549 1184.16 859.559 1156.17 888.839 1120.95C947.069 1050.89 974.849 968.78 982.899 879.13C984.299 863.55 984.679 847.87 985.689 832.25C985.849 829.81 984.759 828.67 983.059 827.4C975.859 821.99 969.019 816.14 962.479 809.96C956.419 804.22 949.649 799.49 942.139 794.89H942.129ZM769.639 1041.52C766.209 1054.48 758.759 1064.08 746.489 1069.69C736.389 1074.3 725.819 1077.02 714.709 1077.58C713.069 1077.66 711.279 1077.44 710.369 1079.33C707.209 1085.92 703.959 1092.48 700.949 1099.14C699.679 1101.96 701.139 1103.37 704.079 1103.88C708.169 1104.59 712.229 1105.51 716.249 1106.54C732.389 1110.67 748.679 1113.28 765.029 1108.36C799.199 1098.08 823.559 1075.9 838.969 1044.23C848.379 1024.9 845.409 1005.68 834.009 987.72C833.289 986.59 832.819 983.92 830.469 985.66C821.179 992.53 811.789 989.57 802.479 985.94C795.059 983.04 795.119 982.88 789.589 988.86C779.199 1000.12 768.109 1001.47 755.249 993.01C753.169 991.64 751.109 990.2 749.189 988.61C745.769 985.8 742.219 985.31 738.029 986.88C724.749 991.85 712.909 988.97 703.359 978.83C698.309 973.47 693.079 971.83 685.829 972.06C667.129 972.66 655.899 964.15 650.109 946.36C649.799 945.41 649.409 944.47 649.249 943.5C648.449 938.55 645.289 936.16 640.639 935.04C635.749 933.87 630.959 932.25 627.579 928.23C625.879 926.21 624.699 927.56 623.389 928.47C610.049 937.74 597.829 948.24 587.849 961.15C570.879 983.09 562.539 1007.69 564.879 1035.61C566.639 1056.59 575.329 1074.95 585.979 1092.63C598.819 1113.94 618.379 1123.93 642.509 1126.02C657.659 1127.33 672.799 1125.81 687.939 1125.45C689.499 1125.41 689.899 1124.83 690.009 1123.42C690.219 1120.77 690.479 1118.12 690.959 1115.51C691.449 1112.85 690.639 1112.07 687.889 1112.15C680.579 1112.38 673.659 1110.9 667.639 1106.41C664.859 1104.34 662.429 1101.75 662.649 1098.19C662.969 1092.96 659.999 1091.96 655.909 1091.93C650.239 1091.88 645.139 1090.1 640.439 1087.03C623.089 1075.69 616.639 1058.07 623.309 1038.45C625.009 1033.45 625.319 1029.4 623.229 1024.4C619.569 1015.65 621.889 1006.58 627.739 1002.6C633.599 998.61 641.059 999.68 648.719 1006.1C651.009 1008.02 652.389 1007.65 654.739 1006.36C666.999 999.58 680.169 997.77 693.849 1000.44C696.819 1001.02 698.579 1000.64 700.879 998.65C706.119 994.12 712.379 992.51 719.029 995.13C725.669 997.74 727.429 1003.64 728.009 1010.06C728.129 1011.38 728.149 1012.73 728.049 1014.06C727.889 1016.17 728.449 1017.83 730.039 1019.4C735.059 1024.37 737.569 1030.68 739.009 1037.46C740.969 1046.68 740.499 1055.87 737.939 1065.1C752.959 1062.7 759.409 1049.73 769.629 1041.53L769.639 1041.52ZM435.049 1170.27C435.189 1169.79 435.489 1169.01 435.629 1168.2C440.299 1141.43 447.519 1115.36 457.109 1089.92C457.949 1087.68 460.689 1085.47 459.479 1083.35C458.389 1081.44 455.549 1080.45 453.379 1079.23C440.959 1072.29 431.029 1061.95 418.989 1054.43C393.379 1038.45 375.449 1015.98 365.219 987.62C360.369 974.18 356.149 960.51 352.079 946.81C342.719 915.35 323.559 891.61 296.089 874.11C282.749 865.62 269.679 856.7 256.489 847.99C255.829 847.56 255.219 846.85 254.229 847.27C253.329 848.23 253.789 849.43 253.789 850.53C253.789 862.06 255.319 873.46 257.309 884.77C267.949 945.43 291.019 1001.13 324.349 1052.76C353.959 1098.64 392.109 1136.48 435.059 1170.26L435.049 1170.27ZM552.519 1101.5C550.979 1099.5 549.369 1099.35 547.689 1099.55C537.219 1100.83 526.719 1100.21 516.239 1099.92C500.449 1099.49 485.099 1096.7 471.069 1089C467.129 1086.84 465.619 1087.27 463.669 1091.58C452.729 1115.69 446.899 1141.28 440.709 1166.82C439.819 1170.49 440.569 1172.01 443.639 1173.82C476.169 1192.93 511.619 1202.08 548.919 1204.88C554.439 1205.29 560.049 1205.95 566.889 1204.88C564.379 1203.1 562.899 1201.9 561.279 1200.91C554.279 1196.63 546.579 1193.95 538.879 1191.27C537.099 1190.65 535.059 1190.12 535.549 1187.74C536.059 1185.3 538.299 1185.42 540.019 1185.96C550.359 1189.19 560.839 1187.8 571.249 1186.88C581.889 1185.94 592.559 1184.92 603.909 1182.69C600.639 1180.43 597.729 1179.78 594.909 1178.94C581.499 1174.95 567.709 1172.67 553.999 1170.05C552.009 1169.67 549.749 1169.34 549.899 1166.65C550.059 1163.89 552.409 1164.09 554.399 1163.85C564.969 1162.57 575.559 1161.45 586.089 1159.86C593.719 1158.71 601.499 1157.97 609.339 1154.83C603.799 1150.11 597.579 1148.2 591.509 1146.09C579.539 1141.91 567.049 1139.83 554.709 1137.18C552.469 1136.7 550.129 1136.05 550.319 1133.36C550.509 1130.74 552.889 1130.29 555.159 1129.98C562.409 1129 569.679 1128.09 576.879 1126.82C579.939 1126.28 583.379 1126.47 586.349 1123.96C581.159 1119.6 575.409 1117.6 569.479 1115.95C561.769 1113.81 553.839 1112.8 545.969 1111.47C544.119 1111.16 542.249 1110.57 542.069 1108.28C541.889 1106.1 543.429 1104.98 545.199 1104.25C547.499 1103.31 549.849 1102.49 552.519 1101.49V1101.5ZM963.929 733.52C963.509 732.48 963.099 731.39 962.639 730.32C953.849 709.91 943.029 690.63 929.639 672.89C883.839 612.22 822.579 575.81 749.339 558.25C746.919 557.67 745.729 558.42 744.679 560.58C742.209 565.66 739.619 570.71 736.849 575.63C726.719 593.63 716.089 611.32 703.539 627.76C701.539 630.38 701.669 631.72 704.469 633.58C707.639 635.68 710.589 638.22 713.199 640.98C714.839 642.71 715.879 642.74 717.759 641.61C732.819 632.54 749.229 627.34 766.629 625.4C785.549 623.29 804.539 622.09 823.209 627.05C844.389 632.67 862.959 643.84 881.249 655.44C892.509 662.58 901.709 671.93 909.109 683.01C920.179 699.57 928.749 717.35 934.749 736.36C935.329 738.19 935.169 740.38 938.419 739.6C946.019 737.77 953.709 736.32 961.529 735.78C962.819 735.69 964.389 735.66 963.929 733.52ZM614.789 1208.35C617.629 1210.32 620.499 1210.51 623.239 1211.03C666.789 1219.37 710.149 1215.26 753.479 1209.03C755.419 1208.75 756.009 1208.03 755.729 1206.11C754.899 1200.35 754.039 1194.58 753.479 1188.79C751.369 1166.75 748.639 1144.73 749.739 1122.52C749.889 1119.44 748.849 1118.83 746.129 1118.96C741.639 1119.18 737.139 1119.21 732.709 1118.12C730.839 1117.66 729.249 1118.27 727.519 1119.15C717.879 1124.02 707.849 1127.26 696.829 1125.22C695.999 1125.07 695.059 1124.73 694.509 1125.49C690.859 1130.59 684.989 1131.21 679.659 1132.52C674.289 1133.84 668.689 1134.25 661.809 1135.26C664.519 1136.21 665.959 1136.57 667.259 1137.21C669.359 1138.25 672.769 1138.48 672.129 1141.87C671.469 1145.39 668.209 1144.26 665.899 1144.21C651.899 1143.96 637.899 1143.97 623.919 1144.94C622.099 1145.07 619.919 1144.35 618.239 1146.68C625.359 1151.04 633.029 1153.61 640.799 1156C650.879 1159.1 661.499 1159.21 671.679 1161.76C674.029 1162.35 676.659 1162.97 676.519 1165.84C676.379 1168.84 673.649 1168.93 671.249 1169.2C657.029 1170.8 642.789 1172.31 628.599 1174.2C622.989 1174.95 617.169 1174.98 611.229 1177.55C619.279 1183.05 627.709 1185.9 636.459 1187.99C647.909 1190.73 659.669 1189.9 671.269 1190.88C673.389 1191.06 676.119 1190.68 676.199 1193.71C676.269 1196.41 673.569 1196.37 671.709 1196.7C663.199 1198.22 654.619 1199.4 646.149 1201.12C635.779 1203.22 625.279 1204.86 614.799 1208.36L614.789 1208.35ZM573.649 649.16C570.029 654.167 569.289 659.134 571.429 664.06C571.759 664.82 572.089 665.59 572.409 666.35C587.109 701.36 592.969 737.46 586.019 775.18C584.029 786 580.549 796.36 576.149 806.71C585.579 808.37 594.419 810.51 602.589 814.91C610.689 819.28 619.029 823.22 627.119 829.39C625.609 794.2 637.679 764.68 659.209 737.97C657.429 737.97 656.479 737.95 655.519 737.97C648.969 738.1 646.689 735.34 648.259 729.01C648.739 727.08 649.449 725.2 650.209 723.35C657.439 705.85 667.189 689.85 679.089 675.13C680.179 673.78 681.849 672.74 681.989 670.61C675.589 669.02 670.439 669.59 665.769 675.32C659.459 683.06 651.689 689.49 643.169 694.84C628.339 704.16 614.049 702.49 601.509 690.16C589.629 678.48 579.929 665.3 573.629 649.16H573.649ZM715.089 1070.2C717.149 1070.04 719.479 1069.68 721.799 1069.72C727.609 1069.83 729.879 1066.34 730.969 1061.3C733.279 1050.56 732.939 1039.8 727.969 1030.11C724.229 1022.81 720.819 1015.99 720.809 1007.46C720.809 1001.93 716.869 999.9 711.339 1000.84C708.019 1001.41 705.479 1003.04 703.829 1006.01C702.449 1008.5 700.439 1009.58 697.589 1008.66C682.579 1003.79 668.419 1005.84 655.039 1013.98C652.299 1015.65 650.089 1015.26 648.069 1012.75C646.289 1010.53 644.049 1008.76 641.589 1007.33C638.219 1005.38 634.659 1004.74 631.189 1006.92C627.649 1009.15 627.109 1012.88 627.349 1016.61C627.569 1019.94 628.689 1023.16 630.429 1026.02C632.259 1029.03 632.129 1031.57 630.489 1034.82C620.519 1054.62 630.319 1079.22 651.109 1087.11C652.599 1087.68 655.259 1088.95 655.519 1087.54C656.059 1084.71 658.749 1082.26 656.039 1078.53C648.809 1068.59 649.819 1055.57 657.629 1046.78C664.899 1038.6 676.059 1035.9 686.819 1039.72C697.279 1043.43 704.549 1052.98 705.059 1063.65C705.329 1069.4 706.339 1070.31 712.329 1070.19C713.159 1070.17 713.989 1070.19 715.089 1070.19V1070.2ZM828.309 963.04C828.309 961.7 828.349 960.87 828.309 960.04C827.959 954.22 827.749 954.12 822.239 956C817.679 957.56 813.099 959.09 808.479 960.48C754.559 976.74 693.429 963.01 656.469 912.38C654.149 909.21 652.979 903.01 648.489 903.92C644.589 904.7 641.569 909.35 638.929 913.04C634.229 919.58 634.659 921.77 642.269 924.05C651.719 926.87 657.349 932.55 660.339 942.1C665.059 957.14 672.259 962.16 688.119 961.85C696.589 961.68 703.219 964.06 708.979 970.31C715.879 977.81 724.519 980.5 734.399 976.94C742.579 974 749.739 975.71 756.419 980.82C758.139 982.13 759.929 983.37 761.799 984.45C769.199 988.75 774.599 988.15 780.819 982.39C782.529 980.81 784.229 979.18 785.729 977.41C790.269 972.06 795.649 971.23 801.879 974.02C805.839 975.8 810.009 976.96 814.289 977.68C821.709 978.93 826.539 975.51 827.859 968.02C828.179 966.22 828.199 964.37 828.309 963.05V963.04ZM556.499 1107.54C560.639 1108.41 564.519 1109.13 568.349 1110.05C576.299 1111.97 584.209 1114.15 590.549 1119.69C595.199 1123.75 594.269 1128.25 588.449 1130.14C585.629 1131.06 582.629 1131.46 579.689 1132C576.789 1132.54 573.869 1132.98 570.959 1133.46C573.079 1134.91 575.149 1135.43 577.189 1136C588.879 1139.28 600.659 1142.33 611.089 1148.9C613.499 1150.42 615.949 1152.37 615.549 1155.59C615.119 1159.02 612.299 1160.38 609.249 1161.18C608.129 1161.48 607.009 1161.79 605.869 1162.05C595.209 1164.53 584.309 1165.6 573.139 1167.34C573.849 1167.82 574.209 1168.22 574.639 1168.33C584.779 1170.9 595.049 1173.03 604.689 1177.28C605.459 1177.62 606.359 1178.16 606.759 1177.07C608.339 1172.79 612.349 1172.71 615.779 1171.97C622.929 1170.44 630.139 1169.21 637.339 1167.95C643.179 1166.93 649.049 1166.05 654.909 1165.11C641.689 1162.18 629.269 1158.08 617.699 1151.58C615.299 1150.23 612.319 1148.78 612.839 1145.31C613.359 1141.83 616.539 1141.4 619.319 1140.91C629.189 1139.15 639.179 1139.02 649.169 1138.82C650.319 1138.8 651.709 1139.33 652.969 1137.8C648.929 1136.49 645.419 1134.58 641.409 1134.13C617.709 1131.46 597.579 1122.21 583.259 1102.4C581.909 1100.54 581.129 1100.2 579.019 1101.55C574.119 1104.67 568.599 1105.9 562.789 1105.19C560.329 1104.89 558.279 1105.25 556.469 1107.55L556.499 1107.54ZM554.939 838.28C522.839 869.39 485.039 875.5 442.199 865.35C455.649 876.13 469.299 882.11 485.389 884.72C513.309 889.25 540.089 875.49 551.369 850.72C553.059 847.01 554.839 843.25 554.939 838.28ZM666.429 1078.56C661.679 1070.91 663.369 1067.2 672.289 1065.67C680.289 1064.3 688.219 1065.37 696.119 1066.54C701.289 1067.31 701.839 1066.87 700.819 1061.56C698.209 1047.87 684.889 1039.43 671.629 1043.06C659.039 1046.51 651.909 1060.51 656.259 1073.25C658.689 1080.37 659.149 1080.61 666.439 1078.56H666.429ZM670.729 1073.43C672.029 1076.16 674.429 1076.65 676.309 1077.82C679.219 1079.63 678.939 1081.6 676.029 1082.85C673.619 1083.88 670.949 1084.39 668.349 1084.87C663.959 1085.67 661.729 1087.07 665.819 1091.25C666.539 1091.99 666.979 1093.39 666.909 1094.44C666.639 1098.32 669.049 1100.12 671.989 1101.62C675.449 1103.39 679.189 1104.22 683.009 1104.52C694.689 1105.41 693.099 1107.17 696.649 1095.9C698.139 1091.16 699.949 1086.52 701.689 1081.86C702.719 1079.11 703.889 1076.42 705.149 1073.32C693.409 1072.81 682.279 1070.88 670.739 1073.45L670.729 1073.43ZM712.169 239.85C692.909 238.78 676.229 230.97 660.539 220.42C656.949 218 653.019 216.16 648.859 214.84C640.429 212.18 633.299 214.48 626.959 220.88C641.279 217.36 652.429 224.78 664.049 230.77C668.319 232.98 672.769 234.93 677.309 236.5C688.579 240.39 700.149 242.04 712.169 239.85ZM563.199 645.78C568.869 639.41 570.139 626.79 565.789 618.55C562.579 612.48 557.549 610.34 550.829 611.98C547.909 612.69 546.809 613.63 549.009 616.48C555.799 625.29 558.469 636.08 563.199 645.78ZM286.709 772.8C288.439 767.72 290.449 762.98 293.899 759.01C294.679 758.11 295.409 757.21 294.569 755.92C290.969 750.35 289.849 743.77 287.299 736.7C285.079 742.55 283.939 747.96 281.179 752.35C275.699 761.04 279.099 766.99 285.789 772.52C285.909 772.62 286.099 772.62 286.709 772.8ZM629.539 527.91C614.729 525.8 600.619 521.92 587.629 514.35C586.429 513.65 584.339 510.88 583.479 513.52C582.769 515.68 580.499 519.64 584.809 521.18C599.269 526.37 614.219 528.57 629.539 527.91ZM527.249 925.7C526.179 921.02 525.039 916.35 524.039 911.65C522.569 904.67 521.229 897.67 519.769 890.69C519.339 888.66 518.369 887.3 515.939 888.43C514.529 889.08 512.769 888.96 513.609 891.66C517.209 903.21 520.549 914.84 523.969 926.44C524.259 927.43 524.609 928.62 525.739 928.46C527.119 928.26 527.369 927 527.239 925.7H527.249ZM719.879 1115.49C715.069 1113.72 711.129 1112.11 707.089 1110.83C704.559 1110.03 702.129 1106.39 699.889 1108.31C697.969 1109.95 697.869 1113.7 696.909 1116.49C696.079 1118.87 697.249 1119.38 699.309 1119.29C706.049 1118.97 712.599 1117.71 719.889 1115.5L719.879 1115.49Z" fill="black"/>
<path d="M668.401 415.01C664.571 415.01 660.741 415.01 656.901 415.01C651.261 415.01 649.891 413.24 651.871 407.99C656.341 396.12 662.711 385.16 668.591 373.97C672.461 366.6 676.551 359.35 680.661 352.11C681.771 350.15 682.891 347.59 685.861 348.49C688.611 349.33 688.061 351.87 687.981 354C687.291 372.48 686.561 390.95 685.911 409.43C685.781 413.12 684.191 414.97 680.401 414.9C676.401 414.83 672.401 414.88 668.401 414.88C668.401 414.92 668.401 414.96 668.401 415V415.01ZM656.761 407.99C664.091 407.99 670.391 407.94 676.681 408.02C678.581 408.04 679.361 407.26 679.471 405.43C680.241 392.9 681.211 380.38 681.081 366.32C672.691 380.69 665.051 393.78 656.751 408L656.761 407.99Z" fill="black"/>
<path d="M628.111 363.091C616.251 362.891 607.181 359.431 598.921 353.731C593.141 349.751 588.011 344.971 583.061 340.031C581.931 338.911 580.261 337.501 581.451 335.761C582.531 334.171 584.561 334.781 586.081 335.301C591.451 337.141 596.401 339.911 601.321 342.701C607.561 346.241 613.981 349.431 621.111 350.761C628.481 352.141 635.671 351.521 642.661 348.611C645.561 347.401 648.431 345.921 651.691 345.931C652.771 345.931 654.161 345.331 654.811 346.681C655.411 347.921 654.471 348.981 653.761 349.821C646.641 358.311 637.641 362.981 628.121 363.091H628.111Z" fill="black"/>
<path d="M750.869 385.149C735.429 382.969 723.719 375.139 715.599 361.869C714.789 360.539 713.609 358.569 715.139 357.319C716.829 355.939 718.129 357.959 719.349 358.909C726.689 364.629 735.109 368.089 743.899 370.759C750.719 372.829 757.339 371.729 763.939 369.429C768.149 367.959 772.279 366.019 776.879 366.019C777.989 366.019 779.389 365.529 780.099 366.709C780.809 367.889 779.909 368.959 779.169 369.839C771.769 378.589 762.479 383.829 750.879 385.149H750.869Z" fill="black"/>
<path d="M786.09 329.29C781.5 328.52 778.94 326.34 776.6 324.07C763.51 311.34 748.03 309.71 731.16 313.85C728.3 314.55 724.16 317.29 722.68 313.69C721.23 310.16 725.71 308.26 728.53 306.83C744.96 298.51 769.47 298.73 783.05 322.17C784.18 324.12 784.85 326.35 786.09 329.3V329.29Z" fill="black"/>
<path d="M657.81 476.98C647.54 476.29 637.9 472.58 630.85 463.55C629.84 462.25 628.93 460.81 628.28 459.3C627.44 457.34 626.37 455.06 628.81 453.49C630.97 452.1 632.64 453.7 634.03 455.11C645.19 466.36 658.2 468.78 672.98 463.65C675.89 462.64 679.95 461.2 681.52 464.66C683.35 468.69 679.35 470.86 676.35 472.54C670.89 475.6 664.89 476.89 657.8 476.99L657.81 476.98Z" fill="black"/>
<path d="M624.5 281.9C637.19 282.39 649.28 285.1 657.79 296.19C659.66 298.63 662.88 302.1 660.88 304.27C658.91 306.42 655.48 303.13 653.31 301.29C644.29 293.64 633.62 291.27 622.21 291.15C615.56 291.08 608.91 291.27 602.26 291.23C600.64 291.22 598.58 291.08 598.36 288.95C598.15 286.92 600.02 286.29 601.6 285.74C608.9 283.22 616.46 282.27 624.5 281.91V281.9Z" fill="black"/>
<path d="M501.049 309.549C501.119 300.729 506.749 292.319 514.439 289.669C517.919 288.469 521.319 288.419 524.289 290.999C525.179 291.769 525.899 292.849 525.559 294.059C525.199 295.389 523.999 295.419 522.749 295.539C515.329 296.229 510.449 300.959 509.249 308.429C508.249 314.639 511.149 319.119 518.169 322.209C518.929 322.549 519.749 322.789 520.439 323.229C521.549 323.929 522.989 324.599 522.789 326.149C522.539 328.059 520.749 328.069 519.299 328.289C510.079 329.659 500.969 320.289 501.049 309.549Z" fill="black"/>
<path d="M831.911 355.98C830.291 355.77 827.371 357.17 827.001 353.96C826.651 350.91 829.541 350.46 831.761 349.94C839.261 348.18 844.691 351.67 846.581 359.38C849.801 372.52 839.401 387.39 825.891 388.96C825.231 389.04 824.561 389.04 823.901 389.05C821.991 389.09 819.751 388.89 819.461 386.77C819.141 384.35 821.541 384.31 823.311 383.97C835.131 381.67 840.891 375.27 840.711 364.66C840.591 357.94 838.431 355.71 831.911 355.98Z" fill="black"/>
<path d="M474.66 793.631C465.16 793.121 455.44 791.201 447.14 784.931C445.14 783.421 441.96 781.751 443.59 778.671C445.2 775.611 448.14 777.781 450.28 778.501C459.02 781.431 467.89 783.371 477.17 783.141C492.81 782.741 503.87 774.731 509.13 759.881C509.85 757.841 510.39 755.741 511.22 753.751C512.17 751.471 514.02 750.361 516.45 751.101C518.96 751.871 519.5 753.921 519.13 756.311C515.83 777.431 496.59 793.801 474.66 793.641V793.631Z" fill="black"/>
<path d="M452.56 678.6C452.43 677.37 452.56 676.18 453.78 675.58C455.35 674.8 456.28 676.04 457.09 677.03C460.46 681.14 463.77 685.3 467.1 689.44C473.97 697.98 480.77 706.58 487.77 715.03C490.17 717.92 490.06 720.14 487.39 722.72C481.54 728.38 475.85 734.21 470.1 739.97C469.03 741.04 467.94 742.18 466.24 741.62C465.08 741.24 464.25 740.39 464.16 739.08C463.27 726.28 458.95 714.15 456.8 701.59C455.49 693.91 453.43 686.37 452.57 678.6H452.56ZM467.94 733.77C473.03 728.84 477.5 724.43 482.08 720.13C483.93 718.39 482.67 717.21 481.66 715.9C478.29 711.56 474.93 707.23 471.55 702.9C467.93 698.27 464.28 693.66 460.64 689.04C460.33 689.22 460.02 689.4 459.71 689.58C462.4 704.03 465.1 718.49 467.95 733.76L467.94 733.77Z" fill="black"/>
<path d="M361.06 706.02C361.42 702.73 363.08 698.95 365.13 695.32C369.45 687.71 375.12 681.28 382.26 676.2C383.73 675.15 385.33 674.17 387.01 673.54C389.69 672.54 392.76 671.71 394.7 674.56C396.51 677.23 394.74 679.62 392.89 681.66C385.63 689.67 379.1 698.24 373.17 707.27C372.35 708.51 371.43 709.72 370.39 710.78C368.63 712.56 366.73 714.46 363.92 713.25C361.21 712.08 360.87 709.56 361.04 706.02H361.06Z" fill="black"/>
<path d="M501.92 640C493.96 638.94 485.47 638.97 476.98 638.96C474.61 638.96 472.27 638.58 470.45 636.95C467.58 634.38 468.76 630.28 473.22 628.3C480.84 624.92 489.01 624.429 497.19 624.599C500.32 624.659 503.5 624.729 506.58 625.719C511.57 627.309 514.7 630.829 513.78 634.469C512.56 639.299 508.73 640.16 504.42 640.01C503.76 639.99 503.09 640.01 501.93 640.01L501.92 640Z" fill="black"/>
<path d="M415.019 721.411C414.969 722.961 413.979 725.061 411.379 726.221C408.489 727.511 406.029 726.431 404.189 724.431C400.479 720.401 398.679 715.351 398.289 709.981C397.999 706.001 401.279 703.861 404.919 705.181C409.219 706.751 415.129 715.561 415.029 721.401L415.019 721.411Z" fill="black"/>
<path d="M512.74 670.74C512.78 675 508.62 677.8 504.33 676.4C499.61 674.86 494.53 666.49 495.32 661.56C495.95 657.65 499.38 655.63 503.07 656.99C507.05 658.46 512.7 666.49 512.74 670.74Z" fill="black"/>
<path d="M322.08 793.2C312.53 793.33 306.82 784.99 310.45 776.47C312.1 772.59 314.57 769.21 318.46 767.28C319.9 766.56 321.79 766.09 322.94 767.87C323.94 769.43 322.95 770.72 321.8 771.78C319.84 773.59 318.02 775.5 316.83 777.93C315.6 780.45 315.02 782.99 317.02 785.36C318.9 787.59 321.44 787.35 323.93 786.76C326.44 786.17 329.86 783.5 330.81 787.72C331.67 791.55 327.43 791.91 324.74 792.88C323.83 793.21 322.77 793.13 322.08 793.2Z" fill="black"/>
<path d="M736.4 776.919C739.79 776.729 740.98 778.219 739.93 781.199C735.31 794.339 730.62 807.449 725.97 820.579C724.92 823.539 722.8 823.859 720.41 822.579C713.69 818.959 707.04 815.209 700.4 811.439C697.41 809.739 697.52 807.549 699.98 805.489C710.93 796.309 721.92 787.179 732.91 778.059C733.95 777.189 735.17 776.629 736.39 776.929L736.4 776.919ZM734.12 783.109C733.86 782.959 733.6 782.819 733.35 782.669C724.64 790.549 715.94 798.429 707.22 806.299C705.94 807.449 705.69 808.299 707.46 809.259C711.54 811.469 715.59 813.729 719.58 816.089C721.13 817.009 721.9 816.729 722.49 815.089C726.35 804.419 730.24 793.769 734.12 783.109Z" fill="black"/>
<path d="M727.661 869.121C709.041 869.061 692.951 857.581 687.971 840.731C687.341 838.611 685.831 835.941 689.011 834.731C691.811 833.661 692.681 836.371 693.601 838.191C699.471 849.741 707.881 858.181 721.111 860.571C728.441 861.891 735.681 860.961 742.761 858.811C745.471 857.991 748.361 857.291 749.511 860.631C750.681 864.031 747.821 865.211 745.241 866.151C739.571 868.231 733.701 869.201 727.661 869.121Z" fill="black"/>
<path d="M826.089 800.111C826.029 802.301 825.969 804.761 823.639 805.651C821.269 806.551 819.439 804.781 818.229 803.011C815.049 798.361 812.119 793.551 809.069 788.811C805.119 782.671 801.149 776.561 796.589 770.841C795.369 769.301 793.779 767.361 795.369 765.521C796.819 763.841 799.149 764.571 800.949 765.421C802.729 766.261 804.489 767.301 805.999 768.551C813.779 774.991 819.809 782.831 824.129 791.961C825.339 794.521 826.119 797.231 826.079 800.111H826.089Z" fill="black"/>
<path d="M772.89 809.47C773.42 803.22 775.24 797.43 779.6 792.76C783.56 788.53 787.17 789.18 789.61 794.33C792.36 800.13 789.76 812.71 784.91 816.99C782.6 819.03 779.96 819.8 777.12 818.34C773.53 816.5 772.76 813.18 772.89 809.46V809.47Z" fill="black"/>
<path d="M691.34 773.819C691.76 767.629 691.82 762.439 694.91 757.919C697.2 754.569 700.08 752.529 704.18 753.979C708.34 755.449 709.24 758.939 708.6 762.929C707.84 767.699 706.99 772.459 704.38 776.659C702.38 779.879 699.78 782.169 695.75 780.879C691.88 779.649 691.5 776.179 691.35 773.819H691.34Z" fill="black"/>
<path d="M702.431 739.991C697.491 739.991 693.501 740.011 689.511 739.991C687.731 739.981 686.051 739.371 685.551 737.571C685.021 735.671 686.441 734.291 687.941 733.631C697.011 729.631 706.421 728.461 716.061 731.171C718.281 731.791 720.641 733.271 720.331 735.991C719.991 738.891 717.211 739.151 714.911 739.341C710.441 739.691 705.961 739.831 702.431 740.011V739.991Z" fill="black"/>
<path d="M907.94 895.069C915.13 895.509 918.23 890.559 914.87 882.269C914.04 880.229 912.66 878.609 911.15 877.039C910.06 875.899 908.31 874.769 910.08 872.929C911.7 871.239 913.17 872.629 914.5 873.469C919.79 876.799 923.37 886.219 921.78 892.429C920.46 897.579 914.52 901.419 907.24 901.669C905.79 901.719 904.27 901.379 902.86 900.969C901.29 900.519 900.26 899.269 900.44 897.629C900.65 895.759 901.98 894.759 903.9 894.759C904.89 894.759 905.88 894.909 907.93 895.079L907.94 895.069Z" fill="black"/>
<path d="M197.72 725.391C199.14 723.781 200.56 722.161 202 720.561C203.2 719.231 204.71 718.261 206.38 719.331C208.15 720.471 207.53 722.331 206.83 723.821C205.56 726.531 204.09 729.141 202.7 731.781C198.59 739.571 194.49 747.371 190.34 755.141C189.03 757.601 187.44 759.841 184.46 761.101C183.28 757.201 184.53 753.991 185.66 750.741C188.79 741.771 194.04 733.821 197.88 725.221L197.72 725.391Z" fill="black"/>
<path d="M689.741 1029.57C690.051 1026.36 690.281 1022.47 695.121 1021.94C698.711 1021.55 701.971 1026.27 701.691 1031.44C701.491 1035.04 700.031 1037.93 695.841 1038.06C692.071 1038.17 689.711 1034.98 689.741 1029.57Z" fill="black"/>
<path d="M649.799 1031.35C649.949 1028.87 650.5 1026.08 654.28 1025.92C657.23 1025.79 660.289 1030.02 660.219 1033.92C660.159 1037.03 658.71 1038.96 655.46 1039.08C651.97 1039.21 649.709 1036.28 649.799 1031.35Z" fill="black"/>
</svg>
